<?xml version="1.0" standalone="no"?>
<!DOCTYPE svg PUBLIC "-//W3C//DTD SVG 20010904//EN"
 "http://www.w3.org/TR/2001/REC-SVG-20010904/DTD/svg10.dtd">
<svg version="1.0" xmlns="http://www.w3.org/2000/svg"
 width="1440.000000pt" height="435.000000pt" viewBox="0 0 1440.000000 435.000000"
 preserveAspectRatio="xMidYMid meet">

<g transform="translate(0.000000,435.000000) scale(0.100000,-0.100000)"
fill="#000000" stroke="none">
<path d="M9615 4341 c-6 -4 -32 -14 -60 -20 -27 -7 -72 -23 -100 -36 -73 -34
-136 -53 -259 -75 -110 -19 -238 -70 -233 -91 1 -6 -22 -12 -52 -14 -32 -2
-61 -11 -72 -21 -14 -12 -34 -17 -67 -15 -96 4 -405 -89 -455 -138 -15 -14
-18 -39 -20 -161 -2 -141 -1 -146 26 -197 36 -70 37 -56 -19 -363 -23 -125
-58 -214 -92 -230 -26 -12 -144 -60 -148 -60 -1 0 -21 38 -44 84 -24 47 -56
97 -72 113 -27 26 -35 28 -110 28 -72 0 -82 -2 -99 -24 -43 -53 -7 -199 68
-275 27 -27 38 -44 26 -37 -24 12 -73 72 -95 116 -26 51 -35 123 -23 181 5 21
3 21 -43 12 -50 -11 -65 -23 -56 -49 8 -27 -28 -34 -48 -10 -19 24 -55 27 -82
6 -37 -28 -20 -167 30 -241 20 -30 22 -35 6 -21 -36 32 -65 116 -66 189 -1 69
-13 76 -25 16 -9 -42 13 -141 41 -182 40 -58 138 -133 158 -121 6 3 9 1 8 -7
-2 -7 5 -12 15 -12 9 1 17 -2 17 -6 0 -5 8 -8 18 -7 9 0 42 -11 73 -25 62 -28
66 -34 182 -246 l51 -94 66 3 c37 2 72 9 82 17 9 8 22 11 28 7 10 -6 110 12
110 21 0 2 -16 32 -35 66 -41 75 -97 209 -90 216 2 3 9 -7 14 -22 6 -14 35
-78 66 -141 l55 -116 48 7 c28 3 85 -1 140 -10 200 -35 235 -23 554 183 386
248 674 330 876 249 39 -16 62 -22 63 -14 7 61 -45 399 -81 526 -10 36 -28
101 -40 145 -43 156 -120 351 -155 395 -32 41 -27 49 56 90 93 46 86 48 146
-51 83 -137 143 -290 194 -493 90 -362 102 -651 32 -757 l-25 -38 -33 34
c-117 116 -265 159 -433 125 -65 -14 -223 -71 -297 -107 -76 -39 -277 -156
-400 -234 -60 -38 -139 -84 -175 -101 -59 -29 -74 -32 -160 -32 -73 -1 -110 5
-160 22 l-65 22 48 -5 c63 -6 60 1 -7 15 -48 10 -65 8 -157 -15 -57 -15 -140
-29 -184 -32 -44 -3 -82 -7 -84 -9 -8 -7 33 -86 54 -102 11 -9 46 -53 76 -98
55 -79 113 -153 255 -321 71 -82 72 -85 77 -151 6 -75 39 -261 65 -362 l8 -35
8 38 c4 21 10 46 13 55 4 15 3 15 -6 2 -8 -12 -11 -4 -11 33 0 28 -8 62 -20
84 -11 21 -20 44 -20 51 0 21 47 32 139 32 105 0 243 22 326 51 95 34 305 141
397 203 108 71 300 260 448 440 203 247 216 261 238 264 30 5 70 -63 93 -156
10 -40 28 -87 40 -104 29 -41 49 -111 49 -174 0 -29 9 -92 21 -139 l20 -87
-42 -62 c-91 -131 -267 -323 -386 -418 -164 -133 -453 -288 -633 -338 -63 -18
-135 -38 -160 -46 -79 -23 -233 -36 -294 -25 -62 11 -89 23 -125 55 l-25 21
18 -30 c32 -53 69 -86 89 -81 10 2 39 -7 64 -21 l46 -25 46 20 c66 29 122 35
150 16 20 -14 26 -14 59 0 20 8 80 33 132 54 67 28 100 37 112 31 28 -15 45
-11 151 39 140 67 342 202 369 248 14 24 40 45 81 66 79 39 163 128 178 186
10 36 20 49 63 76 62 40 122 125 118 167 -5 39 13 66 47 74 42 9 93 87 89 134
-3 30 2 38 32 58 36 25 90 105 90 136 0 24 48 114 64 120 7 3 37 50 66 104
109 205 231 396 350 549 30 39 77 100 103 135 26 35 65 85 85 110 121 151 231
302 283 389 51 87 57 103 47 120 -10 16 -10 25 4 47 9 16 23 28 30 28 21 0 38
45 27 74 -13 32 -4 85 16 101 25 21 19 243 -8 350 l-22 85 -975 3 c-543 1
-980 -2 -985 -7z m555 -61 c0 -5 -2 -10 -4 -10 -3 0 -8 5 -11 10 -3 6 -1 10 4
10 6 0 11 -4 11 -10z m298 -43 c165 -180 289 -419 341 -659 35 -161 29 -189
-47 -250 -26 -21 -67 -54 -91 -75 l-44 -38 6 74 c7 85 -19 266 -54 371 -58
177 -174 383 -268 475 -22 22 -41 45 -41 51 0 12 127 93 146 94 6 0 29 -20 52
-43z m-508 -68 c0 -5 -4 -9 -10 -9 -5 0 -10 7 -10 16 0 8 5 12 10 9 6 -3 10
-10 10 -16z m211 -86 c123 -140 255 -437 294 -660 19 -110 23 -295 6 -344 -6
-20 -26 -50 -44 -66 -18 -16 -54 -54 -82 -85 l-50 -56 -1 201 c0 150 -4 219
-16 267 -9 36 -26 105 -38 154 -42 172 -144 387 -235 496 -19 23 -33 45 -30
49 11 10 140 78 151 80 7 0 27 -16 45 -36z m-2547 -1124 c14 -17 26 -41 26
-54 0 -12 7 -28 15 -35 23 -19 18 -27 -21 -34 -19 -4 -41 -9 -48 -12 -13 -5
-66 82 -66 109 0 22 30 57 50 57 10 0 30 -14 44 -31z m1012 -126 c-6 -6 -36 9
-36 18 0 5 9 4 20 -3 10 -7 18 -14 16 -15z m-921 -33 c11 -4 29 -17 39 -29 15
-17 26 -20 52 -15 45 8 51 -11 6 -24 -90 -27 -114 -25 -154 8 -42 35 -47 54
-20 69 16 10 32 8 77 -9z m201 -38 c-4 -3 -14 2 -24 12 -16 18 -16 18 6 6 13
-6 21 -14 18 -18z m44 -12 c8 -5 11 -10 5 -10 -5 0 -17 5 -25 10 -8 5 -10 10
-5 10 6 0 17 -5 25 -10z m-89 -30 c-15 -3 -25 -14 -27 -28 -4 -20 0 -22 44
-22 46 1 47 1 22 16 l-25 15 30 -6 c17 -4 50 -6 75 -5 58 2 47 -8 -31 -26 -51
-12 -73 -13 -111 -3 -27 6 -48 16 -48 21 0 6 -11 8 -24 6 -14 -3 -30 -2 -37 3
-7 4 13 12 50 20 34 6 64 15 67 20 2 4 12 5 22 2 14 -6 13 -8 -7 -13z m166 4
c-3 -3 -12 -4 -19 -1 -8 3 -5 6 6 6 11 1 17 -2 13 -5z m60 -20 c-3 -3 -12 -4
-19 -1 -8 3 -5 6 6 6 11 1 17 -2 13 -5z m-100 -60 c-11 -11 -68 -14 -62 -4 3
6 20 10 37 10 17 0 29 -3 25 -6z m33 -34 c6 -11 8 -20 6 -20 -3 0 -10 9 -16
20 -6 11 -8 20 -6 20 3 0 10 -9 16 -20z m-80 -10 c0 -5 -2 -10 -4 -10 -3 0 -8
5 -11 10 -3 6 -1 10 4 10 6 0 11 -4 11 -10z m123 -71 c-11 -10 -73 -22 -73
-14 0 4 10 20 23 35 l22 29 18 -21 c10 -12 14 -25 10 -29z m2 -35 c32 -13 64
-112 33 -101 -7 2 -12 12 -11 23 3 22 -13 52 -22 42 -4 -3 -2 -22 3 -42 12
-43 2 -53 -31 -31 -37 24 -65 105 -37 105 6 0 10 -13 10 -28 0 -31 24 -71 36
-59 4 4 2 13 -4 19 -14 14 -16 78 -3 78 5 0 17 -3 26 -6z m966 -124 c-13 -11
-28 -20 -35 -20 -6 0 3 9 19 20 38 25 47 25 16 0z m-121 -84 c0 -2 -7 -7 -16
-10 -8 -3 -12 -2 -9 4 6 10 25 14 25 6z m-45 -26 c-3 -5 -12 -10 -18 -10 -7 0
-6 4 3 10 19 12 23 12 15 0z m-355 -895 c0 -14 -2 -25 -4 -25 -2 0 -6 11 -8
25 -3 14 -1 25 3 25 5 0 9 -11 9 -25z"/>
<path d="M7567 2943 c-16 -15 -6 -53 18 -69 42 -27 61 8 29 54 -15 22 -35 28
-47 15z"/>
<path d="M7650 2781 c0 -29 65 -60 84 -41 8 9 5 16 -13 31 -24 20 -71 26 -71
10z"/>
<path d="M7818 2693 c7 -3 16 -2 19 1 4 3 -2 6 -13 5 -11 0 -14 -3 -6 -6z"/>
<path d="M5682 3237 c-50 -55 -91 -177 -95 -283 l-2 -69 118 -3 117 -3 0 55
c0 104 -41 234 -94 296 l-24 29 -20 -22z"/>
<path d="M5243 3064 c-6 -16 12 -102 31 -149 l15 -35 137 0 136 0 -33 38 c-66
75 -157 132 -239 151 -32 7 -42 6 -47 -5z"/>
<path d="M6087 3060 c-83 -26 -200 -109 -228 -162 -9 -17 -3 -18 125 -18 l134
0 21 62 c21 61 28 139 14 137 -5 0 -34 -8 -66 -19z"/>
<path d="M12425 2902 c-63 -31 -136 -100 -195 -186 l-33 -49 -19 24 c-55 69
-90 109 -97 109 -21 0 -211 -214 -199 -225 2 -3 17 -1 34 4 16 4 44 3 63 -3
40 -12 131 -92 161 -142 12 -19 25 -34 28 -34 4 0 25 33 47 72 100 178 259
262 406 213 62 -21 119 -27 119 -14 0 5 -4 9 -8 9 -13 0 -8 39 6 45 7 2 11 1
8 -4 -3 -5 10 -8 30 -6 28 3 34 0 30 -11 -3 -8 0 -15 7 -16 7 0 19 -2 27 -2 8
-1 14 -7 13 -14 -2 -7 2 -12 8 -12 6 0 9 -9 6 -20 -3 -11 -1 -20 4 -20 5 0 9
10 10 23 0 21 1 21 8 2 5 -11 4 -21 0 -23 -5 -2 -9 -10 -9 -18 0 -8 -6 -14
-14 -14 -8 0 -21 -3 -30 -6 -11 -4 -19 2 -26 21 -7 17 -16 25 -28 23 -10 -1
-31 5 -46 15 -45 30 -40 13 5 -19 42 -29 93 -92 141 -173 l26 -43 25 43 c35
59 113 134 159 154 45 18 99 20 116 3 7 -7 12 -8 12 -3 0 20 -188 201 -221
213 -11 4 -82 -66 -114 -112 l-21 -29 -46 64 c-85 120 -175 180 -278 187 -45
2 -66 -2 -115 -26z m410 -202 c3 -5 1 -10 -4 -10 -6 0 -11 5 -11 10 0 6 2 10
4 10 3 0 8 -4 11 -10z m95 -100 c0 -5 -2 -10 -4 -10 -3 0 -8 5 -11 10 -3 6 -1
10 4 10 6 0 11 -4 11 -10z m-100 -35 c13 -14 21 -25 18 -25 -2 0 -15 11 -28
25 -13 14 -21 25 -18 25 2 0 15 -11 28 -25z m60 -15 c-12 -17 -25 -29 -28 -26
-2 3 1 12 8 21 10 12 9 15 -6 16 -14 0 -10 4 11 14 39 17 42 13 15 -25z"/>
<path d="M1380 2841 c-17 -4 -26 -14 -28 -31 -1 -13 -6 -27 -11 -30 -4 -3 -10
-21 -14 -41 -3 -20 -14 -55 -26 -78 l-20 -42 28 18 c83 54 122 78 176 110 33
18 49 31 36 27 -16 -4 -21 -3 -17 5 4 6 -5 13 -21 18 l-28 7 25 7 c22 6 21 7
-10 8 -26 1 -31 4 -20 11 13 8 13 10 -2 10 -9 0 -22 2 -30 4 -7 2 -24 1 -38
-3z"/>
<path d="M5322 2828 c4 -10 91 -14 380 -16 328 -2 377 0 382 13 5 13 -40 15
-380 15 -304 0 -385 -3 -382 -12z"/>
<path d="M5388 2748 c15 -15 601 -15 628 1 14 8 -68 10 -310 11 -249 0 -327
-3 -318 -12z"/>
<path d="M5470 2688 c0 -14 106 -58 141 -58 28 0 31 3 25 23 -3 12 -6 27 -6
33 0 6 -30 11 -80 11 -44 1 -80 -3 -80 -9z"/>
<path d="M5650 2692 c0 -3 12 -21 26 -40 l27 -34 23 28 c36 45 31 55 -26 53
-27 -2 -50 -5 -50 -7z"/>
<path d="M5775 2692 c-3 -3 -5 -20 -5 -38 l0 -32 41 9 c45 11 114 43 124 59 7
11 -149 13 -160 2z"/>
<path d="M12752 2651 c4 -13 18 -16 19 -4 0 4 -5 9 -11 12 -7 2 -11 -2 -8 -8z"/>
<path d="M12826 2615 c4 -8 11 -15 16 -15 6 0 5 6 -2 15 -7 8 -14 15 -16 15
-2 0 -1 -7 2 -15z"/>
<path d="M1734 2579 c-4 -7 -7 -37 -7 -68 0 -66 38 -165 59 -157 8 3 14 3 14
0 0 -9 -111 -56 -117 -50 -3 3 14 13 37 22 l42 17 -28 16 c-34 18 -188 22
-216 6 -17 -10 -16 -13 5 -42 12 -18 32 -37 44 -44 12 -7 20 -15 18 -19 -8
-13 -114 -62 -123 -56 -4 2 -23 33 -41 68 -18 35 -41 77 -51 93 -10 17 -19 38
-19 48 -1 9 -6 17 -11 17 -6 0 -18 17 -28 38 -9 20 -25 45 -36 54 -18 17 -20
16 -44 -35 -24 -50 -40 -153 -21 -141 5 3 9 11 9 19 0 8 11 26 25 41 27 29 34
21 10 -13 -38 -54 -94 -321 -65 -311 8 2 19 33 26 74 14 83 30 144 44 164 9
13 15 10 38 -16 15 -18 40 -53 55 -79 23 -40 31 -46 52 -42 37 7 30 -2 -20
-24 -24 -11 -77 -38 -117 -61 -40 -23 -89 -50 -108 -60 -19 -11 -60 -37 -90
-59 -30 -22 -84 -60 -120 -84 -79 -53 -224 -165 -228 -177 -2 -4 -9 -8 -15 -8
-26 -1 -69 -48 -77 -86 -15 -60 -11 -233 5 -294 8 -30 12 -56 10 -58 -2 -2 -9
14 -15 37 -16 62 -24 50 -17 -28 5 -63 108 -407 126 -421 4 -3 12 -16 18 -30
12 -25 23 -42 93 -151 37 -57 59 -95 84 -144 9 -16 29 -52 46 -80 16 -27 39
-70 51 -94 11 -24 32 -55 45 -70 13 -14 24 -34 24 -43 0 -10 5 -18 11 -18 5 0
17 -17 26 -38 8 -20 18 -39 22 -42 3 -3 13 -14 21 -24 13 -18 13 -19 0 -12 -8
4 -5 -1 7 -12 12 -11 20 -22 17 -25 -4 -3 0 -15 8 -26 8 -12 18 -18 21 -14 4
3 7 -3 7 -15 0 -20 5 -22 69 -22 l70 0 -25 58 c-14 31 -59 122 -99 202 -41 80
-123 246 -183 370 -80 164 -131 254 -186 330 -42 58 -84 115 -93 128 -9 12
-21 68 -29 128 -8 58 -17 110 -20 115 -3 5 -3 9 0 9 3 0 31 -52 62 -115 39
-80 62 -115 74 -115 15 0 30 10 79 51 11 10 12 8 7 -9 -10 -30 51 -66 88 -52
26 9 28 7 51 -42 13 -28 31 -53 39 -54 20 -3 21 -7 -10 61 -19 41 -23 59 -15
64 6 4 9 15 6 23 -7 18 32 61 50 55 14 -5 54 -115 55 -157 1 -19 4 -29 7 -22
6 14 39 16 48 2 3 -5 1 -10 -6 -10 -10 0 -10 -3 0 -12 11 -10 14 -10 18 -1 3
7 11 13 19 13 8 0 17 7 20 15 4 8 12 15 20 15 8 0 14 5 14 10 0 14 37 12 44
-2 3 -7 3 -3 0 10 -4 16 -1 22 12 22 9 0 22 7 29 16 8 12 20 15 38 10 34 -8
35 -24 3 -22 -13 0 -22 4 -19 9 2 4 0 7 -5 7 -6 0 -12 -7 -16 -15 -3 -8 -1
-15 4 -15 6 0 10 -4 10 -10 0 -5 -6 -7 -14 -4 -8 3 -19 -3 -26 -15 -6 -12 -17
-21 -25 -21 -17 0 -28 -17 -20 -30 4 -6 12 -4 22 5 14 14 17 14 33 0 17 -15
19 -15 23 2 4 15 5 15 6 1 0 -9 9 -19 19 -21 12 -3 11 -5 -6 -6 -13 0 -32 4
-42 9 -16 8 -18 8 -14 -5 4 -8 12 -15 20 -15 8 0 14 -8 14 -17 0 -15 2 -14 16
3 12 15 15 15 10 2 -2 -9 2 -19 10 -22 8 -3 14 -12 14 -21 0 -8 4 -15 10 -15
5 0 8 6 6 13 -1 6 -1 9 1 5 2 -4 10 -5 18 -2 7 3 16 0 20 -5 3 -6 11 -9 16 -5
5 3 7 10 4 15 -3 5 1 6 9 3 25 -10 18 -31 -9 -31 -14 0 -25 3 -25 8 0 5 -5 9
-12 9 -6 0 -3 -9 7 -20 10 -11 16 -22 14 -24 -7 -7 -59 6 -59 15 0 5 -6 9 -12
9 -8 -1 -4 -8 8 -18 11 -10 19 -22 17 -28 -2 -7 3 -14 11 -17 11 -4 13 -1 9
10 -5 12 -1 14 16 8 16 -5 27 -1 37 12 13 16 13 15 3 -9 -7 -16 -17 -24 -25
-21 -9 3 -14 -2 -14 -12 0 -12 -5 -15 -20 -10 -24 8 -26 -11 -5 -39 15 -20 15
-20 15 0 1 14 4 11 14 -11 14 -32 11 -49 -4 -25 -5 8 -12 12 -15 8 -4 -3 3
-15 15 -26 22 -20 12 -40 -12 -26 -7 4 -3 -3 9 -15 34 -32 46 -27 39 16 l-5
38 13 -30 c14 -30 6 -65 -14 -65 -6 0 -10 -10 -10 -21 0 -19 -2 -20 -17 -8
-14 12 -16 12 -12 0 8 -24 28 -24 37 -1 8 22 9 22 27 -6 15 -24 16 -27 2 -15
-11 9 -17 10 -17 2 0 -6 -7 -11 -15 -11 -9 0 -15 -6 -13 -14 2 -8 -11 -28 -29
-45 -18 -17 -28 -33 -24 -36 5 -3 11 2 15 10 3 8 12 15 21 15 8 0 15 5 15 10
0 6 9 10 20 10 11 0 20 7 20 15 0 8 6 12 14 9 9 -3 17 3 21 15 4 12 12 18 20
14 8 -3 18 2 21 11 3 9 10 16 16 16 5 0 6 -6 2 -12 -6 -10 -5 -10 7 -1 17 14
33 5 37 -21 3 -16 1 -18 -10 -9 -15 13 -43 12 -55 -2 -4 -4 -3 -5 3 -2 16 9
26 -33 13 -50 -8 -9 -16 -10 -30 -2 -13 7 -19 6 -19 -1 0 -12 10 -16 63 -25
20 -3 37 -11 37 -16 0 -7 -12 -8 -30 -4 -18 4 -30 2 -30 -3 0 -6 14 -13 30
-17 17 -4 28 -11 25 -15 -3 -5 -12 -7 -20 -3 -8 3 -15 0 -15 -6 0 -6 14 -11
31 -11 22 0 30 -4 26 -14 -3 -7 1 -31 8 -52 8 -22 14 -33 15 -26 0 15 50 16
50 1 0 -6 -9 -8 -20 -4 -16 5 -20 2 -20 -16 0 -19 -2 -20 -17 -8 -9 8 -19 14
-22 13 -3 0 -5 6 -3 15 2 11 -5 17 -18 17 -25 0 -26 -11 0 -33 11 -10 20 -21
20 -25 0 -5 -9 -8 -20 -8 -22 0 -26 -10 -9 -27 12 -12 39 -6 50 10 4 6 15 6
25 2 11 -5 25 -7 32 -6 6 1 12 -5 12 -13 0 -8 6 -16 13 -19 6 -2 8 -8 4 -13
-5 -5 -15 -1 -23 10 -17 24 -29 15 -15 -11 5 -10 12 -26 15 -36 9 -28 36 -21
37 11 2 24 2 24 6 4 3 -13 0 -29 -6 -35 -13 -17 3 -42 20 -32 8 5 11 5 7 0 -4
-4 -3 -14 3 -21 8 -10 6 -11 -15 -1 -14 7 -26 15 -26 20 0 18 -18 4 -22 -18
-3 -14 -1 -25 3 -25 5 0 9 -7 9 -15 0 -9 -7 -15 -17 -13 -10 2 -19 -4 -21 -15
-5 -22 33 -23 42 -1 6 15 8 15 24 1 17 -16 18 -15 18 10 -1 14 5 28 13 31 9 3
12 0 9 -10 -4 -8 0 -15 8 -15 7 0 11 4 9 8 -8 12 7 40 19 36 6 -2 19 6 29 17
l18 21 -6 -22 c-9 -34 11 -28 24 7 11 32 25 39 34 16 4 -10 1 -13 -7 -10 -7 3
-13 -2 -13 -11 0 -9 6 -14 13 -11 8 3 11 0 8 -9 -4 -8 -18 -12 -40 -10 -19 1
-37 -2 -40 -7 -3 -5 -2 -7 3 -6 4 2 9 -1 11 -7 1 -5 -2 -11 -8 -11 -5 -1 -14
-2 -20 -3 -5 0 -10 -7 -10 -15 0 -12 31 -15 176 -16 l176 -1 -20 33 c-10 18
-41 69 -67 113 -76 126 -204 317 -217 323 -5 2 -8 7 -8 12 0 4 -28 50 -62 102
-35 51 -92 138 -127 191 -35 54 -75 106 -87 116 -13 10 -21 21 -18 23 3 3 -10
27 -28 53 -18 26 -64 96 -103 156 -38 60 -89 135 -112 168 -31 44 -40 62 -30
68 18 11 49 14 43 4 -9 -14 4 -41 20 -41 8 0 14 -9 14 -20 0 -10 9 -24 21 -30
11 -7 18 -14 15 -17 -9 -9 14 -44 24 -38 6 3 7 -1 4 -9 -3 -8 4 -24 15 -35 12
-12 21 -23 21 -26 0 -10 53 -81 66 -88 8 -5 12 -12 10 -16 -3 -4 4 -17 14 -29
11 -12 20 -29 20 -38 0 -9 9 -18 20 -21 11 -3 20 -14 20 -24 0 -10 8 -23 18
-28 10 -6 12 -11 4 -11 -7 0 -10 -5 -6 -11 5 -8 8 -8 13 0 5 8 13 6 27 -4 16
-13 16 -14 1 -9 -13 5 -16 2 -11 -9 3 -8 13 -18 22 -21 9 -3 24 -9 32 -12 8
-3 7 0 -2 6 -10 6 -18 17 -18 25 0 8 -9 20 -20 27 -11 7 -20 16 -20 21 0 4 5
5 10 2 11 -7 13 6 4 29 -3 9 -12 16 -20 16 -8 0 -14 5 -14 11 0 5 -4 8 -9 5
-9 -6 -26 22 -22 37 1 5 -3 6 -8 3 -5 -3 -11 4 -14 15 -4 13 -10 19 -19 14 -7
-3 -4 1 6 9 20 16 19 16 -1 16 -21 0 -38 24 -28 40 3 5 0 12 -6 16 -8 4 -9 3
-5 -4 4 -7 5 -12 2 -12 -3 0 -15 18 -26 40 -11 22 -25 40 -30 40 -6 0 -10 9
-10 21 0 11 -5 30 -11 42 -9 18 -9 20 2 9 21 -19 26 -14 25 23 0 19 -4 35 -8
35 -5 0 -8 7 -8 16 0 9 -10 24 -22 34 l-22 17 37 24 c43 28 56 49 24 41 -19
-4 -17 0 11 25 35 34 40 51 17 59 -12 5 -13 10 -4 20 6 8 16 14 21 14 5 0 18
8 29 19 11 10 45 30 77 45 31 15 65 32 74 37 10 5 24 9 32 9 8 0 27 10 43 23
28 23 103 61 103 52 0 -3 -43 -33 -95 -68 -93 -62 -119 -95 -46 -58 20 10 66
28 103 39 36 12 75 25 85 31 10 5 45 19 78 32 33 12 65 26 70 30 34 24 228 79
298 83 l78 5 26 -59 c14 -33 30 -60 34 -60 12 0 12 2 -11 60 -22 55 -25 74
-11 66 5 -4 7 2 4 12 -3 13 5 23 29 34 l33 17 -55 -5 c-30 -3 -95 -7 -145 -9
l-90 -5 45 16 c25 8 68 17 95 19 28 2 78 11 112 20 79 20 161 17 169 -7 5 -17
53 -38 100 -43 29 -3 24 2 59 -60 39 -70 53 -84 76 -78 23 6 24 13 4 39 -21
28 -19 32 24 39 37 6 39 8 31 30 -10 26 -4 33 43 53 25 11 29 10 46 -18 16
-28 19 -29 32 -14 7 9 39 34 71 55 42 29 58 46 58 62 -1 26 -59 139 -60 117 0
-9 -7 -3 -16 13 -8 15 -12 32 -9 37 5 9 -157 280 -193 322 -14 16 -52 24 -172
33 -30 2 -95 8 -145 12 -121 11 -344 8 -386 -5 -19 -5 -61 -15 -94 -22 -33 -6
-85 -18 -115 -27 -30 -8 -63 -17 -72 -20 -14 -3 -18 2 -18 26 0 38 -16 81 -31
81 -40 0 -142 -131 -124 -160 3 -5 0 -10 -8 -10 -8 0 -20 14 -28 31 -25 62
-159 174 -175 148z m122 -209 c-45 -23 -46 -23 -46 -11 0 4 15 13 33 19 51 16
55 13 13 -8z m-536 -44 c0 -3 -4 -8 -10 -11 -5 -3 -10 -1 -10 4 0 6 5 11 10
11 6 0 10 -2 10 -4z m336 -41 c-11 -8 -25 -15 -30 -15 -6 0 -2 7 8 15 11 8 25
15 30 15 6 0 2 -7 -8 -15z m1210 -108 c8 -4 14 -12 14 -17 0 -14 -44 -12 -59
3 -11 10 -12 9 -6 -1 5 -10 2 -13 -11 -11 -11 2 -30 -1 -43 -5 -19 -6 -28 -4
-38 10 -18 25 -16 44 5 43 10 0 12 -3 5 -6 -7 -2 -13 -9 -13 -14 0 -6 5 -7 12
-3 8 5 9 2 5 -9 -4 -11 -1 -17 8 -17 10 0 15 10 15 28 l0 27 21 -25 20 -25 -7
25 c-6 23 -6 24 11 10 11 -8 16 -10 12 -3 -4 7 0 13 10 15 10 2 20 -1 22 -7 2
-5 10 -14 17 -18z m70 19 c3 -8 12 -12 20 -9 9 3 14 -2 14 -16 0 -29 -31 -27
-61 5 -19 21 -20 24 -5 18 14 -5 17 -4 12 4 -4 7 -2 12 4 12 6 0 13 -6 16 -14z
m82 -8 c7 -7 12 -8 12 -3 0 5 7 0 15 -11 13 -16 14 -16 9 -1 -3 9 -1 17 5 17
6 0 11 -4 11 -10 0 -5 7 -7 15 -4 8 4 15 1 15 -5 0 -6 -6 -11 -12 -12 -7 0 -4
-4 7 -9 29 -13 41 -12 27 2 -17 17 -15 28 6 28 24 0 38 -11 46 -36 7 -24 10
-23 -86 -10 -43 6 -58 12 -59 25 0 13 -2 12 -8 -3 -5 -14 -10 -16 -15 -8 -4 7
-4 17 0 24 4 7 3 8 -4 4 -7 -4 -12 -1 -12 8 0 19 11 21 28 4z m-322 -10 c5 -7
3 -8 -5 -3 -9 5 -12 2 -9 -11 2 -11 10 -18 16 -16 7 1 12 -2 12 -8 0 -13 -17
-13 -25 1 -5 6 -12 4 -20 -8 -11 -15 -15 -15 -29 -4 -22 18 -21 53 1 49 9 -2
19 -10 21 -18 5 -13 3 -13 -13 0 -16 13 -18 13 -13 0 2 -8 11 -15 19 -15 8 0
15 7 15 15 3 27 4 30 13 30 6 0 13 -5 17 -12z m544 -8 c0 -5 7 -10 15 -10 8 0
15 -9 15 -20 0 -25 -26 -26 -52 -3 -23 20 -23 34 -1 26 11 -4 14 -3 9 5 -4 7
-2 12 3 12 6 0 11 -4 11 -10z m-667 -17 c-5 -12 -3 -14 7 -8 10 6 12 4 7 -8
-4 -10 0 -17 11 -20 12 -3 11 -5 -5 -6 -23 -1 -49 32 -38 49 10 17 25 11 18
-7z m-13 -47 c0 -6 -5 -5 -12 2 -17 17 -28 15 -22 -5 5 -15 3 -15 -10 1 -9 11
-16 27 -15 35 0 11 2 12 6 4 7 -19 23 -16 23 5 1 13 4 11 15 -8 8 -14 14 -29
15 -34z m-74 21 c1 -7 5 -21 9 -32 5 -14 -1 -11 -18 10 -17 20 -21 32 -14 37
13 8 20 3 23 -15z m-55 -34 c6 -17 5 -21 -7 -16 -8 3 -14 -1 -14 -8 0 -18 -16
1 -25 29 -6 20 -4 23 15 20 13 -2 26 -13 31 -25z m-57 -5 c15 -21 7 -48 -15
-48 -13 0 -31 40 -25 56 8 20 23 17 40 -8z m-61 -5 c-7 -2 -13 -9 -13 -14 0
-4 7 -6 16 -2 14 5 14 3 3 -15 l-14 -22 -12 23 c-17 31 -16 37 10 36 12 0 16
-3 10 -6z m-116 -38 c5 -14 8 -14 25 2 19 17 20 17 16 -12 -4 -43 -41 -59 -82
-37 -25 13 -27 17 -13 20 10 2 26 -2 35 -9 14 -11 15 -11 5 1 -16 17 -17 50
-3 50 6 0 13 -7 17 -15z m-111 -102 c-1 -2 -13 9 -27 24 -18 20 -20 25 -6 20
12 -4 17 -1 18 11 1 9 5 1 9 -18 5 -19 7 -36 6 -37z m-63 30 c-20 -7 -15 -23
5 -16 15 6 16 5 2 -12 -14 -17 -13 -17 10 -10 19 5 22 4 14 -5 -6 -6 -18 -12
-25 -14 -8 -1 -24 -7 -36 -14 -20 -11 -24 -9 -38 18 -8 16 -11 30 -6 30 5 0
13 -9 16 -20 7 -21 30 -27 40 -10 3 5 1 18 -4 28 -12 22 -5 32 18 31 10 0 12
-2 4 -6z m-79 -63 c15 -31 9 -39 -12 -18 -9 9 -12 8 -12 -7 -1 -16 -4 -14 -16
9 -13 24 -14 30 -2 37 21 14 26 11 42 -21z m-59 -20 c23 -25 14 -37 -10 -13
-17 16 -17 16 -11 -5 5 -13 3 -22 -3 -22 -6 0 -11 14 -11 30 0 35 10 38 35 10z
m-49 -12 c4 -6 2 -14 -4 -16 -7 -2 -12 -11 -12 -20 -1 -15 -3 -14 -15 2 -8 11
-15 26 -15 33 0 16 36 17 46 1z m-110 -40 c17 24 27 10 15 -21 -14 -35 -43
-50 -75 -37 -32 12 -35 34 -4 25 17 -6 20 -4 14 10 -10 26 4 39 22 21 14 -14
17 -14 28 2z m-156 -73 c-10 -13 -9 -15 8 -15 12 0 23 -4 26 -9 7 -11 -22 -36
-31 -27 -3 3 -1 6 5 6 7 0 12 5 12 10 0 6 -9 10 -20 10 -23 0 -26 10 -8 28 17
17 23 15 8 -3z m-20 -44 c12 -23 11 -23 -16 -17 -23 6 -26 5 -15 -7 9 -12 8
-16 -5 -21 -23 -9 -34 -7 -34 5 0 6 7 9 15 5 18 -6 19 -2 4 26 -10 19 -9 20
15 14 21 -5 24 -3 19 11 -8 23 1 14 17 -16z m-75 -39 c3 -35 -12 -36 -17 -2
-3 18 0 29 5 27 6 -2 11 -13 12 -25z m-52 1 c-20 -7 -15 -23 5 -16 14 5 15 3
5 -8 -18 -19 -16 -29 5 -23 14 5 15 4 2 -5 -12 -8 -19 -5 -32 12 -17 22 -9 48
16 46 7 0 6 -2 -1 -6z m-50 -30 c-7 -2 -13 -11 -13 -18 0 -21 21 -29 32 -14 8
12 9 11 5 -1 -2 -8 -12 -15 -23 -15 -10 0 -22 -8 -26 -17 -10 -25 -35 -23 -43
3 -9 28 9 46 30 29 13 -10 15 -9 15 7 0 22 8 33 24 32 6 0 5 -3 -1 -6z m-693
-151 c20 -52 33 -107 36 -145 1 -34 7 -84 12 -110 7 -35 6 -47 -2 -44 -17 5
-54 119 -71 215 -14 78 -20 181 -11 171 2 -2 18 -41 36 -87z m569 71 c-12 -15
-12 -16 4 -10 15 6 17 3 11 -15 -6 -21 -6 -22 12 -8 18 14 18 14 5 -2 -18 -24
-26 -23 -40 9 -10 21 -9 28 1 34 20 13 22 11 7 -8z m-21 -40 c10 -19 9 -20 -8
-16 -16 4 -19 2 -14 -13 6 -17 5 -17 -9 1 -21 25 -21 36 -2 29 10 -4 15 0 15
12 0 20 3 18 18 -13z m-61 -15 c0 -7 4 -22 8 -33 l7 -20 -17 20 c-9 11 -21 19
-27 17 -7 -2 -6 3 2 12 15 19 26 20 27 4z m480 -20 c-3 -8 -6 -5 -6 6 -1 11 2
17 5 13 3 -3 4 -12 1 -19z m-541 -20 c4 -7 3 -8 -4 -4 -7 4 -12 1 -12 -8 0 -9
6 -13 14 -10 8 3 17 0 22 -7 5 -9 2 -10 -10 -6 -14 5 -17 3 -12 -8 9 -25 -8
-17 -20 9 -8 18 -8 28 -1 35 14 14 14 14 23 -1z m-31 -48 c7 -21 0 -40 -15
-40 -13 0 -32 39 -25 50 10 17 33 11 40 -10z m-65 -15 c-10 -12 -9 -15 6 -15
16 0 16 -2 4 -10 -10 -6 -17 -4 -24 7 -5 10 -4 18 5 24 20 13 23 11 9 -6z
m-58 -67 c-7 -7 -12 -8 -12 -2 0 14 12 26 19 19 2 -3 -1 -11 -7 -17z m626 4
l22 -17 -21 -18 c-20 -18 -21 -18 -14 2 4 14 1 23 -9 27 -16 6 -22 24 -8 24 4
0 17 -8 30 -18z m-655 -7 c4 -8 2 -17 -2 -20 -5 -2 -11 4 -14 15 -6 23 8 27
16 5z m627 -21 c0 -8 -4 -12 -10 -9 -5 3 -10 10 -10 16 0 5 5 9 10 9 6 0 10
-7 10 -16z m-650 -8 c0 -3 -4 -8 -10 -11 -5 -3 -10 -1 -10 4 0 6 5 11 10 11 6
0 10 -2 10 -4z m700 -26 c8 -15 8 -18 -3 -14 -8 3 -14 11 -14 19 0 20 4 19 17
-5z m-45 0 c3 -5 1 -10 -4 -10 -6 0 -11 5 -11 10 0 6 2 10 4 10 3 0 8 -4 11
-10z m-207 -157 c-5 -7 -7 -16 -4 -21 3 -5 -5 -21 -18 -35 -13 -14 -21 -28
-18 -31 3 -3 0 -6 -7 -6 -8 0 -10 7 -6 19 3 11 1 22 -5 26 -15 10 -12 56 6 76
15 17 18 17 39 1 16 -12 20 -21 13 -29z m197 -3 c-3 -5 -11 -10 -16 -10 -6 0
-7 5 -4 10 3 6 11 10 16 10 6 0 7 -4 4 -10z m115 -200 c0 -13 -11 -13 -30 0
-12 8 -11 10 8 10 12 0 22 -4 22 -10z m-17 -58 c-3 -12 -9 -22 -14 -22 -12 0
-11 7 2 32 13 25 20 19 12 -10z m33 1 c-10 -10 -19 5 -10 18 6 11 8 11 12 0 2
-7 1 -15 -2 -18z m-77 -118 c6 -3 11 -12 11 -18 -1 -7 -10 -1 -20 12 -11 13
-20 31 -19 40 0 11 3 10 9 -5 5 -12 13 -25 19 -29z m9 20 c-3 -3 -9 2 -12 12
-6 14 -5 15 5 6 7 -7 10 -15 7 -18z m103 -1 c-35 -15 -35 -15 -13 -30 12 -8
28 -12 35 -8 9 6 9 4 0 -7 -10 -10 -16 -10 -25 -1 -20 20 -30 14 -18 -10 10
-21 10 -22 -3 -5 -26 31 -6 77 32 77 25 -1 24 -1 -8 -16z m123 -119 c-4 -8 -1
-15 5 -15 6 0 11 -7 11 -16 0 -9 -5 -12 -12 -8 -15 9 -58 12 -58 4 0 -3 5 -11
12 -18 10 -10 -2 -11 -54 -3 -5 0 -8 6 -8 12 0 6 8 8 19 4 12 -3 21 0 25 11 4
10 12 14 22 10 11 -4 18 1 21 14 3 11 9 20 14 20 5 0 6 -7 3 -15z m147 -212
c13 -16 12 -17 -3 -4 -17 13 -22 21 -14 21 2 0 10 -8 17 -17z m-58 -36 c-5 -8
-8 -7 -11 1 -3 10 -7 10 -18 1 -9 -7 -14 -8 -14 -1 0 6 6 12 13 15 18 6 38 -4
30 -16z m107 7 c0 -11 -6 -15 -18 -12 -11 3 -23 -2 -30 -13 -7 -11 -19 -15
-31 -12 -12 3 -18 9 -16 14 3 4 12 6 19 3 7 -3 19 2 26 10 7 9 16 14 20 11 5
-3 11 -1 15 5 9 15 15 12 15 -6z m-230 -4 c0 -5 -4 -10 -10 -10 -5 0 -10 5
-10 10 0 6 5 10 10 10 6 0 10 -4 10 -10z m74 -32 c-7 -11 -34 3 -34 18 0 12 4
12 19 2 11 -7 18 -15 15 -20z m-54 -15 c-1 -28 -3 -34 -10 -22 -8 14 -3 59 6
59 2 0 4 -17 4 -37z m73 -4 c-6 -6 -9 -18 -6 -25 3 -8 0 -14 -6 -14 -6 0 -11
5 -11 10 0 14 23 50 29 44 3 -2 0 -9 -6 -15z m37 1 c0 -5 -4 -10 -10 -10 -5 0
-10 5 -10 10 0 6 5 10 10 10 6 0 10 -4 10 -10z m-70 -20 c0 -5 -2 -10 -4 -10
-3 0 -8 5 -11 10 -3 6 -1 10 4 10 6 0 11 -4 11 -10z m-10 -74 c0 -10 -7 -12
-22 -8 -21 5 -21 6 -2 13 10 4 20 8 22 8 1 1 2 -5 2 -13z m245 -127 c-4 -5 1
-19 10 -29 16 -18 16 -19 -4 -17 -16 1 -21 8 -21 29 0 15 5 28 11 28 5 0 7 -5
4 -11z m75 -7 c0 -5 -7 -9 -15 -9 -8 0 -15 4 -15 9 0 4 7 8 15 8 8 0 15 -4 15
-8z m-285 -62 c3 -5 2 -10 -4 -10 -5 0 -13 5 -16 10 -3 6 -2 10 4 10 5 0 13
-4 16 -10z"/>
<path d="M2830 2182 c0 -12 19 -26 26 -19 2 2 -2 10 -11 17 -9 8 -15 8 -15 2z"/>
<path d="M3137 2151 c3 -12 9 -21 14 -21 14 0 11 16 -5 29 -12 10 -13 8 -9 -8z"/>
<path d="M2346 2076 c3 -9 11 -16 16 -16 13 0 5 23 -10 28 -7 2 -10 -2 -6 -12z"/>
<path d="M1910 1920 c0 -5 5 -10 11 -10 5 0 7 5 4 10 -3 6 -8 10 -11 10 -2 0
-4 -4 -4 -10z"/>
<path d="M1805 1870 c4 -6 11 -8 16 -5 14 9 11 15 -7 15 -8 0 -12 -5 -9 -10z"/>
<path d="M1310 1606 c0 -15 18 -31 26 -23 7 7 -7 37 -17 37 -5 0 -9 -6 -9 -14z"/>
<path d="M1040 1433 c0 -5 4 -15 10 -23 11 -18 25 -7 17 15 -6 15 -27 21 -27
8z"/>
<path d="M11762 2523 c-22 -38 -49 -89 -60 -115 -24 -55 -75 -218 -70 -224 2
-2 19 41 36 95 18 54 57 147 86 205 29 58 52 106 50 106 -2 0 -21 -30 -42 -67z"/>
<path d="M5550 2541 c0 -29 -1 -29 -46 -28 -37 2 -49 -2 -65 -22 -26 -32 -24
-77 5 -106 21 -21 33 -24 80 -23 l56 2 0 103 c0 85 -3 103 -15 103 -10 0 -15
-10 -15 -29z m-8 -86 c10 -22 9 -29 -9 -47 -41 -40 -100 2 -73 52 16 30 67 27
82 -5z"/>
<path d="M5610 2552 c0 -10 7 -19 15 -19 8 0 15 9 15 19 0 10 -7 18 -15 18 -8
0 -15 -8 -15 -18z"/>
<path d="M5790 2539 c0 -28 -3 -31 -24 -25 -60 15 -115 -39 -100 -98 9 -39 41
-55 101 -54 l51 1 4 56 c5 94 -1 151 -18 151 -9 0 -14 -11 -14 -31z m-12 -71
c27 -27 1 -78 -38 -78 -29 0 -54 43 -40 69 12 24 58 29 78 9z"/>
<path d="M11850 2521 c0 -6 4 -13 10 -16 6 -3 7 1 4 9 -7 18 -14 21 -14 7z"/>
<path d="M5283 2509 c-46 -17 -58 -91 -20 -127 18 -17 34 -21 80 -20 l58 2 -3
74 -3 74 -45 3 c-25 1 -55 -1 -67 -6z m77 -50 c14 -26 -11 -69 -40 -69 -39 0
-65 51 -38 78 20 20 66 15 78 -9z"/>
<path d="M5616 2513 c-3 -3 -6 -39 -6 -80 0 -58 3 -73 15 -73 12 0 15 15 15
74 0 69 -8 95 -24 79z"/>
<path d="M5894 2510 c-28 -11 -54 -48 -54 -78 0 -12 11 -34 25 -48 21 -21 32
-24 82 -21 l58 2 1 73 c1 39 -2 72 -5 73 -3 0 -24 2 -46 3 -22 2 -50 0 -61 -4z
m74 -74 c3 -20 -3 -29 -22 -37 -44 -21 -74 6 -62 55 12 47 78 33 84 -18z"/>
<path d="M6052 2504 c-16 -11 -22 -24 -20 -42 3 -23 10 -29 46 -36 30 -7 42
-15 40 -25 -4 -22 -32 -25 -51 -6 -19 18 -37 20 -37 2 0 -22 23 -37 58 -37 46
0 72 16 72 44 0 29 -15 41 -57 51 -18 3 -35 11 -39 16 -9 15 27 23 47 11 10
-7 27 -12 36 -12 15 1 12 6 -10 25 -33 29 -54 31 -85 9z"/>
<path d="M11774 2373 c-77 -161 -138 -307 -185 -436 -21 -60 -42 -114 -47
-120 -15 -18 -21 -58 -37 -237 -21 -237 -20 -496 5 -645 23 -144 47 -243 49
-202 1 33 18 36 24 5 2 -13 2 8 0 45 -9 118 -6 211 8 255 13 44 36 74 36 47 0
-8 -4 -15 -8 -15 -11 0 -29 -59 -29 -96 0 -18 7 -40 16 -48 9 -9 11 -16 4 -16
-7 0 -8 -5 -3 -12 7 -12 13 -44 13 -78 0 -8 -4 -46 -9 -84 -5 -42 -5 -81 1
-100 5 -17 13 -69 19 -116 6 -58 16 -94 30 -113 17 -24 18 -31 7 -45 -12 -16
-11 -16 6 -2 18 14 19 13 13 -3 -4 -10 -3 -16 2 -13 10 6 30 -39 55 -123 17
-60 21 -101 8 -101 -5 0 -7 13 -4 29 3 23 0 29 -20 34 -34 10 -45 8 -28 -3 13
-9 13 -11 0 -20 -11 -7 -12 -10 -2 -10 9 0 11 -7 7 -19 -3 -11 -2 -22 3 -25 5
-3 7 -17 5 -31 -3 -13 -10 -22 -15 -19 -5 4 -8 -6 -6 -22 3 -27 7 -29 50 -32
54 -3 61 5 52 53 -5 29 -9 33 -24 25 -18 -9 -40 4 -40 24 0 6 7 3 14 -7 13
-16 15 -16 30 -2 14 14 16 13 25 -17 6 -21 10 -26 10 -13 1 11 -6 30 -14 42
-14 20 -13 28 10 91 14 38 25 77 25 87 0 11 5 15 14 12 9 -4 13 -1 10 7 -7 18
45 80 96 114 56 38 120 55 171 47 32 -6 39 -4 39 10 0 9 5 13 10 10 6 -3 10
-15 10 -26 0 -10 4 -19 9 -19 13 0 20 164 7 172 -17 11 -134 9 -141 -2 -3 -6
-20 -17 -37 -26 -63 -32 -116 23 -105 109 5 40 5 41 -8 17 -8 -14 -14 -41 -15
-61 0 -21 -13 -61 -28 -90 -15 -30 -26 -62 -24 -71 2 -10 -1 -18 -6 -18 -5 0
-13 -12 -17 -27 -9 -39 -19 -17 -40 87 -22 108 -29 224 -14 214 7 -4 10 -1 7
7 -3 8 -10 13 -15 12 -6 -1 -8 9 -5 22 3 17 0 25 -9 25 -11 0 -11 2 -1 8 10 7
10 16 1 43 -7 19 -16 39 -20 45 -5 5 -6 19 -3 31 3 12 1 30 -5 41 -13 25 6 43
20 21 6 -11 9 -8 9 8 0 25 -16 39 -24 21 -5 -13 -1 17 9 67 l5 25 31 -33 c17
-17 38 -42 46 -54 8 -13 19 -20 24 -17 5 3 9 -4 9 -16 0 -14 -4 -19 -12 -14
-10 6 -10 5 -1 -7 7 -9 23 -44 36 -78 l24 -63 22 36 c13 20 26 34 29 32 4 -2
39 2 78 8 38 7 96 12 127 11 39 0 57 3 57 12 0 18 -21 27 -30 12 -6 -9 -12
-10 -22 -2 -7 5 -34 15 -60 21 -37 9 -53 9 -79 -2 -39 -16 -94 -3 -85 21 3 8
2 12 -3 9 -23 -15 -29 94 -7 133 12 21 10 38 -15 132 -15 60 -35 122 -43 138
-9 16 -13 38 -9 47 5 13 3 16 -10 11 -9 -3 -17 -2 -17 3 0 6 5 10 11 10 5 0 7
5 4 10 -3 6 -1 10 4 10 6 0 11 5 11 10 0 6 -12 8 -27 5 -16 -3 -22 -2 -15 1 6
3 10 10 7 15 -4 5 0 6 8 3 14 -5 15 31 1 134 -5 38 -8 42 -27 38 -12 -3 -16
-3 -9 0 6 3 10 10 7 15 -4 5 0 6 8 3 11 -4 13 1 10 19 -4 19 -10 23 -29 19
-14 -2 -24 0 -24 7 0 7 5 9 10 6 14 -8 42 14 34 27 -3 5 -13 4 -22 -4 -12 -10
-14 -10 -8 0 5 9 -9 20 -48 38 -31 14 -54 30 -51 34 3 5 -13 19 -36 31 -29 14
-38 23 -29 29 12 7 57 -1 78 -14 5 -3 42 -7 82 -10 78 -5 156 -36 214 -85 31
-28 164 -121 171 -121 2 0 16 21 33 48 44 72 125 155 180 185 106 58 270 59
380 3 54 -28 142 -116 197 -198 21 -32 39 -58 40 -58 1 0 51 49 111 108 121
120 178 152 275 152 50 0 149 36 164 60 11 18 -68 169 -116 223 -47 54 -104
87 -150 87 -97 0 -209 -118 -283 -299 -33 -81 -34 -83 -48 -60 -8 13 -37 61
-64 107 -62 106 -133 185 -207 233 -94 61 -117 65 -182 35 -100 -45 -185 -140
-269 -301 -27 -49 -49 -91 -51 -93 -2 -2 -25 38 -51 89 -66 125 -158 220 -237
245 -53 16 -59 16 -99 1 -43 -16 -43 -16 -20 3 13 10 25 32 28 47 3 15 10 30
15 34 6 3 10 9 10 13 -4 26 1 37 13 33 11 -4 12 2 6 28 -5 24 -4 34 4 32 6 -1
10 6 8 17 -2 11 1 15 7 11 6 -3 11 -1 11 4 0 6 -7 11 -15 11 -9 0 -36 -44 -71
-117z m-70 -568 c20 -8 36 -20 36 -25 0 -6 -18 -1 -40 10 -22 11 -40 23 -40
25 0 7 4 6 44 -10z m56 -84 c5 -11 10 -33 10 -50 0 -17 5 -31 10 -31 7 0 7 -7
2 -17 -9 -20 -8 -84 1 -100 4 -6 -12 -8 -43 -5 -30 3 -55 0 -64 -7 -18 -15
-110 19 -114 43 -3 14 0 14 24 2 14 -8 33 -12 42 -9 9 4 13 2 9 -4 -3 -5 0
-10 8 -10 8 0 15 4 15 9 0 5 5 6 10 3 6 -3 10 -1 10 5 0 6 5 8 10 5 6 -3 10
-2 10 4 0 5 -4 12 -9 15 -5 3 -7 25 -4 48 5 32 3 39 -7 33 -9 -5 -11 -4 -6 3
5 8 13 9 25 3 13 -8 17 -5 18 12 2 15 -1 17 -6 9 -6 -10 -11 -9 -22 4 -12 15
-12 17 0 9 11 -6 13 -4 7 10 -5 15 -4 16 8 6 12 -10 13 -9 9 8 -7 28 32 29 47
2z m53 -71 c3 -11 1 -23 -4 -26 -5 -3 -9 6 -9 20 0 31 6 34 13 6z m7 -64 c0
-8 -4 -17 -8 -20 -4 -2 -8 4 -8 15 0 10 4 19 8 19 4 0 8 -6 8 -14z m-207 -98
c-2 -5 0 -8 6 -8 6 0 8 -7 5 -15 -4 -8 -10 -15 -16 -15 -5 0 -6 5 -3 10 3 6 1
10 -5 10 -6 0 -18 6 -25 14 -11 11 -9 13 15 12 15 -1 26 -4 23 -8z m-28 -103
c-11 -35 -24 -111 -39 -235 -2 -19 -3 4 -1 53 1 48 -1 87 -6 87 -5 0 -9 8 -9
18 0 13 2 14 9 3 11 -17 17 -6 26 49 7 40 23 76 31 67 2 -1 -3 -21 -11 -42z
m249 -51 c3 -8 2 -12 -4 -9 -6 3 -10 10 -10 16 0 14 7 11 14 -7z m3 -76 c-3
-8 -6 -5 -6 6 -1 11 2 17 5 13 3 -3 4 -12 1 -19z m0 -70 c-3 -7 -5 -2 -5 12 0
14 2 19 5 13 2 -7 2 -19 0 -25z m-310 -30 c-3 -8 -6 -5 -6 6 -1 11 2 17 5 13
3 -3 4 -12 1 -19z m310 -40 c-3 -7 -5 -2 -5 12 0 14 2 19 5 13 2 -7 2 -19 0
-25z m-117 18 c0 -7 -40 -14 -44 -7 -3 4 6 8 20 9 13 1 24 0 24 -2z m-63 -26
c1 -11 -2 -22 -8 -25 -5 -3 -6 1 -3 9 3 9 1 16 -6 16 -6 0 -8 5 -5 10 10 16
21 12 22 -10z m60 -6 c-3 -3 -12 -4 -19 -1 -8 3 -5 6 6 6 11 1 17 -2 13 -5z
m120 -46 c-3 -7 -5 -2 -5 12 0 14 2 19 5 13 2 -7 2 -19 0 -25z m-135 -18 c-2
-16 -6 -30 -8 -30 -2 0 -4 14 -4 30 0 17 4 30 8 30 5 0 7 -13 4 -30z m18 -175
c14 -19 14 -19 -2 -6 -10 7 -18 18 -18 24 0 6 1 8 3 6 1 -2 9 -13 17 -24z
m-20 -72 c0 -6 7 -19 16 -27 8 -9 13 -16 10 -16 -4 0 1 -16 9 -36 8 -20 15
-42 15 -48 -1 -6 -12 17 -26 51 -14 34 -40 76 -57 94 l-32 31 32 -19 c18 -10
33 -23 33 -30z m-143 -15 c-3 -8 -6 -5 -6 6 -1 11 2 17 5 13 3 -3 4 -12 1 -19z
m620 -260 c-3 -7 -5 -2 -5 12 0 14 2 19 5 13 2 -7 2 -19 0 -25z m-340 -110
c-3 -7 -5 -2 -5 12 0 14 2 19 5 13 2 -7 2 -19 0 -25z m0 -60 c-3 -8 -6 -5 -6
6 -1 11 2 17 5 13 3 -3 4 -12 1 -19z m-97 -198 c0 -5 -2 -10 -4 -10 -3 0 -8 5
-11 10 -3 6 -1 10 4 10 6 0 11 -4 11 -10z m0 -96 c0 -8 -4 -12 -10 -9 -5 3
-10 10 -10 16 0 5 5 9 10 9 6 0 10 -7 10 -16z m26 -19 c-3 -20 -16 -31 -16
-13 0 13 8 28 16 28 1 0 1 -7 0 -15z m-49 -17 c-3 -8 -6 -5 -6 6 -1 11 2 17 5
13 3 -3 4 -12 1 -19z"/>
<path d="M1093 2263 c1 -118 -1 -146 -19 -195 l-20 -57 36 19 37 19 6 145 c6
127 5 148 -11 175 -9 17 -20 31 -24 31 -4 0 -7 -62 -5 -137z"/>
<path d="M717 2348 c-3 -13 -9 -54 -13 -93 -3 -38 -8 -80 -9 -93 -3 -30 11
-38 18 -9 9 34 20 217 14 217 -2 0 -7 -10 -10 -22z"/>
<path d="M796 2110 c3 -47 10 -89 14 -95 4 -5 11 -28 14 -49 9 -45 30 -82 54
-91 12 -4 11 0 -6 17 -15 17 -26 50 -37 109 -8 47 -21 110 -30 140 l-15 54 6
-85z"/>
<path d="M905 2010 c3 -5 14 -10 24 -10 10 0 30 -10 45 -21 15 -12 30 -19 33
-16 11 12 -7 37 -32 47 -34 13 -78 13 -70 0z"/>
<path d="M4259 1972 c-25 -12 -35 -25 -37 -45 -5 -39 12 -55 75 -73 40 -12 53
-20 51 -32 -4 -23 -61 -28 -78 -8 -15 19 -50 21 -50 3 0 -29 27 -49 73 -54 55
-6 92 12 99 50 7 39 -8 55 -67 73 -30 8 -55 20 -55 25 0 5 0 12 0 17 0 4 11
10 25 13 17 5 29 1 41 -12 18 -20 54 -26 54 -10 0 18 -45 59 -71 65 -14 3 -39
-2 -60 -12z"/>
<path d="M4450 1875 l0 -115 80 0 c73 0 80 2 80 20 0 18 -7 20 -55 20 -52 0
-55 1 -55 25 0 27 5 29 63 26 33 -2 37 0 37 21 0 21 -4 23 -50 23 -45 0 -50 2
-50 23 0 23 6 25 73 22 34 -1 37 1 37 24 0 26 -1 26 -80 26 l-80 0 0 -115z"/>
<path d="M4670 1873 l0 -113 75 0 c68 0 75 2 75 19 0 17 -8 20 -52 23 l-53 3
-3 92 c-2 84 -4 92 -22 90 -19 -1 -20 -9 -20 -114z"/>
<path d="M4870 1875 l0 -115 80 0 c73 0 80 2 80 20 0 18 -7 20 -55 20 -52 0
-55 1 -55 25 0 26 9 30 68 26 29 -2 32 0 32 24 0 26 -2 27 -50 23 -46 -3 -50
-1 -50 20 0 23 15 27 83 22 23 -1 27 2 27 24 0 26 -1 26 -80 26 l-80 0 0 -115z"/>
<path d="M5152 1977 c-60 -19 -90 -86 -66 -146 28 -70 125 -95 181 -47 24 21
26 26 14 40 -13 15 -15 15 -31 1 -22 -20 -68 -22 -98 -6 -50 27 -34 111 23
122 30 6 64 -5 77 -24 7 -12 38 8 38 25 0 10 -78 48 -95 47 -5 -1 -25 -6 -43
-12z"/>
<path d="M5404 1976 c-51 -23 -77 -64 -71 -115 7 -61 40 -92 105 -99 44 -4 53
-1 82 26 33 29 33 30 13 40 -16 9 -24 8 -33 -3 -18 -21 -83 -19 -103 3 -22 25
-21 75 1 95 23 21 85 22 102 2 9 -11 17 -12 32 -4 16 9 17 13 6 26 -14 17 -69
43 -90 43 -7 -1 -27 -7 -44 -14z"/>
<path d="M5607 1984 c-4 -4 -7 -56 -7 -116 l0 -108 25 0 26 0 -3 112 c-2 92
-6 113 -18 116 -9 1 -19 0 -23 -4z"/>
<path d="M5790 1983 c-62 -20 -90 -57 -90 -117 0 -80 100 -132 175 -92 83 45
77 165 -10 202 -36 14 -49 16 -75 7z m91 -80 c14 -37 11 -57 -11 -81 -57 -61
-161 15 -115 84 9 14 26 29 38 33 31 12 77 -7 88 -36z"/>
<path d="M5997 1984 c-4 -4 -7 -56 -7 -116 l0 -108 25 0 c23 0 24 3 27 73 l3
72 45 -72 c38 -63 49 -73 73 -73 l28 0 -3 113 c-3 104 -4 112 -23 112 -18 0
-20 -7 -22 -64 -2 -35 -5 -66 -7 -68 -2 -2 -22 26 -45 62 -23 36 -45 65 -50
65 -5 0 -16 2 -23 5 -8 3 -17 2 -21 -1z"/>
<path d="M6313 1978 c-5 -7 -26 -59 -46 -115 l-36 -103 23 0 c13 0 26 7 30 15
4 11 20 15 55 15 34 0 51 -4 55 -15 3 -8 17 -15 30 -15 l25 0 -36 103 c-40
114 -48 127 -73 127 -10 0 -22 -6 -27 -12z m45 -95 c9 -29 9 -39 -1 -45 -35
-23 -53 -1 -37 47 15 45 24 44 38 -2z"/>
<path d="M6490 1875 l0 -115 61 0 c72 0 112 20 134 66 20 42 19 62 -5 101 -26
43 -54 56 -127 59 l-63 3 0 -114z m145 42 c37 -52 3 -117 -59 -117 -30 0 -35
3 -38 28 -2 15 -2 47 0 72 l4 45 39 -3 c26 -3 44 -11 54 -25z"/>
<path d="M6823 1979 c-45 -13 -83 -62 -83 -108 0 -127 194 -154 231 -31 10 34
10 46 -4 75 -27 57 -84 82 -144 64z m92 -62 c35 -50 3 -117 -55 -117 -80 0
-97 118 -20 142 25 8 60 -4 75 -25z"/>
<path d="M7069 1979 c-14 -5 -32 -22 -38 -36 -17 -38 12 -74 70 -89 33 -8 44
-16 44 -30 0 -25 -62 -34 -71 -10 -7 18 -54 22 -54 6 0 -6 12 -22 26 -37 22
-22 32 -25 76 -21 55 6 78 25 78 65 0 26 -27 46 -87 64 -31 9 -43 18 -43 31 0
10 6 19 13 19 29 3 53 -3 63 -17 13 -16 44 -19 44 -3 0 23 -21 47 -51 58 -37
13 -35 13 -70 0z"/>
<path d="M13508 1935 c-51 -27 -68 -45 -42 -45 21 0 114 50 114 62 0 14 -23 8
-72 -17z"/>
<path d="M13538 1906 c-35 -21 -36 -23 -20 -37 17 -14 21 -14 48 5 18 13 28
28 26 39 -4 21 -8 21 -54 -7z"/>
<path d="M2745 1890 c3 -5 14 -10 23 -10 15 0 15 2 2 10 -20 13 -33 13 -25 0z"/>
<path d="M13572 1861 c-23 -17 -23 -17 -4 -34 23 -21 65 -112 87 -188 15 -52
15 -52 10 -11 -5 40 -59 239 -67 247 -2 2 -14 -4 -26 -14z"/>
<path d="M13192 1781 c-98 -51 -142 -85 -142 -109 0 -13 3 -12 18 1 25 23 39
22 19 -1 -15 -17 -15 -20 9 -45 39 -42 38 -43 102 75 26 46 28 56 14 52 -14
-4 -14 -3 2 8 26 18 82 67 76 67 -3 0 -47 -21 -98 -48z m-7 -41 c-3 -5 -11
-10 -16 -10 -6 0 -7 5 -4 10 3 6 11 10 16 10 6 0 7 -4 4 -10z m-50 -30 c-3 -5
-11 -10 -16 -10 -6 0 -7 5 -4 10 3 6 11 10 16 10 6 0 7 -4 4 -10z"/>
<path d="M11869 1786 c21 -21 40 -32 50 -29 12 4 13 3 2 -5 -8 -6 -9 -12 -3
-16 6 -3 27 -35 47 -71 20 -36 43 -65 51 -65 9 0 33 19 55 43 l40 42 -32 27
c-29 24 -210 108 -233 108 -6 0 5 -15 23 -34z m106 -56 c3 -6 -1 -7 -9 -4 -18
7 -21 14 -7 14 6 0 13 -4 16 -10z m50 -20 c3 -5 2 -10 -4 -10 -5 0 -13 5 -16
10 -3 6 -2 10 4 10 5 0 13 -4 16 -10z m50 -30 c3 -6 -1 -7 -9 -4 -18 7 -21 14
-7 14 6 0 13 -4 16 -10z"/>
<path d="M11830 1786 c0 -2 7 -7 16 -10 8 -3 12 -2 9 4 -6 10 -25 14 -25 6z"/>
<path d="M4558 1644 c-16 -34 0 -58 40 -62 26 -3 34 2 44 22 9 22 8 29 -7 46
-26 29 -63 26 -77 -6z m67 -19 c0 -25 -4 -30 -25 -30 -16 0 -26 6 -28 18 -6
30 6 49 30 45 18 -2 23 -9 23 -33z"/>
<path d="M4691 1623 c0 -31 3 -41 8 -30 6 17 8 17 20 3 7 -9 18 -16 23 -16 6
0 6 5 -1 14 -9 10 -8 16 4 26 21 17 1 50 -30 50 -23 0 -25 -3 -24 -47z m49 22
c0 -8 -9 -15 -20 -15 -11 0 -20 7 -20 15 0 8 9 15 20 15 11 0 20 -7 20 -15z"/>
<path d="M4794 1625 c-1 -25 3 -45 8 -45 4 0 8 20 8 45 0 25 -4 45 -8 45 -4 0
-8 -20 -8 -45z"/>
<path d="M4867 1652 c-21 -23 -21 -36 -1 -56 21 -22 61 -20 74 3 13 26 13 27
-10 28 -22 2 -27 -13 -7 -20 8 -3 6 -7 -5 -12 -28 -11 -50 2 -46 27 2 18 9 23
31 23 15 -1 26 4 24 10 -6 18 -43 16 -60 -3z"/>
<path d="M4993 1625 c0 -27 2 -38 4 -22 2 15 2 37 0 50 -2 12 -4 0 -4 -28z"/>
<path d="M5045 1625 c0 -25 3 -45 8 -45 4 0 7 12 7 28 l1 27 22 -27 c13 -16
26 -28 30 -28 4 0 6 21 6 48 -1 29 -4 36 -6 20 -5 -35 -16 -35 -33 -3 -21 39
-35 30 -35 -20z"/>
<path d="M5178 1625 c-10 -25 -13 -45 -8 -45 6 0 10 5 10 10 0 6 11 10 25 10
14 0 25 -4 25 -10 0 -5 4 -10 9 -10 5 0 1 20 -8 45 -9 25 -21 45 -26 45 -6 0
-18 -20 -27 -45z m42 -7 c0 -5 -7 -8 -15 -8 -17 0 -18 2 -9 25 5 13 8 14 15 3
5 -7 9 -16 9 -20z"/>
<path d="M5280 1625 c0 -44 0 -45 33 -44 23 1 26 3 10 6 -19 4 -23 11 -23 44
0 21 -4 39 -10 39 -5 0 -10 -20 -10 -45z"/>
<path d="M5380 1625 c0 -25 5 -45 10 -45 6 0 10 20 10 45 0 25 -4 45 -10 45
-5 0 -10 -20 -10 -45z"/>
<path d="M5440 1626 c0 -44 1 -46 29 -46 41 0 67 35 47 65 -7 11 -27 21 -45
23 -31 3 -31 3 -31 -42z m60 19 c16 -19 3 -55 -21 -55 -15 0 -19 7 -19 35 0
37 18 47 40 20z"/>
<path d="M5569 1625 c-9 -25 -13 -45 -8 -45 5 0 9 5 9 10 0 6 11 10 25 10 14
0 25 -4 25 -10 0 -5 4 -10 9 -10 6 0 3 20 -6 45 -8 25 -20 45 -27 45 -6 0 -18
-20 -27 -45z m41 -7 c0 -5 -7 -8 -15 -8 -17 0 -18 2 -9 25 5 13 8 14 15 3 5
-7 9 -16 9 -20z"/>
<path d="M5680 1625 c0 -43 1 -45 28 -45 34 0 52 16 52 47 0 24 -26 43 -59 43
-18 0 -21 -6 -21 -45z m59 18 c12 -23 -4 -53 -29 -53 -15 0 -20 7 -20 28 0 44
29 59 49 25z"/>
<path d="M5859 1625 c-9 -25 -13 -45 -8 -45 5 0 9 5 9 10 0 6 11 10 25 10 14
0 25 -4 25 -10 0 -5 4 -10 10 -10 5 0 2 20 -8 45 -9 25 -21 45 -27 45 -5 0
-17 -20 -26 -45z m41 -7 c0 -5 -7 -8 -15 -8 -17 0 -18 2 -9 25 5 13 8 14 15 3
5 -7 9 -16 9 -20z"/>
<path d="M5963 1663 c12 -3 17 -15 17 -44 0 -21 5 -39 10 -39 6 0 10 18 10 39
0 22 5 42 13 44 6 3 -6 5 -28 5 -22 0 -32 -2 -22 -5z"/>
<path d="M6060 1625 c0 -45 0 -45 36 -45 22 0 33 4 29 11 -4 6 -13 8 -19 6 -7
-3 -19 -1 -27 3 -11 8 -11 10 1 14 42 13 44 14 23 15 -35 1 -38 21 -4 21 17 0
31 5 31 10 0 6 -16 10 -35 10 -35 0 -35 0 -35 -45z"/>
<path d="M6171 1623 c1 -42 2 -44 9 -18 l7 30 11 -27 c14 -35 30 -36 38 -3 8
33 22 32 27 -2 2 -17 5 -10 6 20 1 55 -12 60 -35 15 l-17 -33 -15 33 c-22 45
-32 40 -31 -15z"/>
<path d="M6321 1623 c1 -26 3 -40 6 -31 2 9 14 18 26 20 16 2 22 10 22 28 0
20 -6 26 -27 28 -27 3 -28 2 -27 -45z m47 14 c2 -12 -3 -17 -17 -17 -15 0 -21
6 -21 21 0 25 33 22 38 -4z"/>
<path d="M6436 1654 c-33 -32 -13 -74 36 -74 25 0 48 23 48 49 0 16 -30 41
-50 41 -10 0 -26 -7 -34 -16z m60 -20 c8 -30 -6 -47 -32 -42 -35 6 -30 68 5
68 14 0 23 -9 27 -26z"/>
<path d="M6561 1623 c0 -31 3 -41 8 -30 6 17 8 17 20 3 7 -9 18 -16 24 -16 8
0 7 4 0 11 -8 8 -9 16 -1 29 16 25 3 50 -27 50 -23 0 -25 -3 -24 -47z m47 20
c2 -8 -5 -13 -17 -13 -12 0 -21 6 -21 16 0 18 31 15 38 -3z"/>
<path d="M6685 1634 c-18 -45 -20 -63 -3 -46 16 16 45 15 51 0 2 -7 7 -10 11
-7 9 8 -23 89 -35 89 -5 0 -16 -16 -24 -36z m35 -10 c0 -8 -4 -14 -10 -14 -5
0 -10 9 -10 21 0 11 5 17 10 14 6 -3 10 -13 10 -21z"/>
<path d="M6792 1628 l-2 -48 33 1 c29 2 29 2 5 6 -24 4 -27 10 -31 46 l-4 42
-1 -47z"/>
<path d="M2465 1560 c-14 -15 -12 -17 24 -18 21 -1 74 -16 117 -34 44 -17 97
-32 119 -33 38 -2 42 -5 72 -61 17 -33 30 -65 28 -71 -3 -9 10 -12 46 -11 33
0 48 4 45 12 -3 6 -16 37 -29 70 -14 32 -29 61 -33 65 -5 3 -10 13 -12 21 -6
27 -19 43 -26 32 -3 -6 0 -17 8 -25 8 -8 13 -17 10 -20 -7 -6 36 -88 51 -99 6
-5 5 -8 -4 -8 -11 0 -11 -3 -1 -15 8 -9 9 -15 2 -15 -11 0 -25 18 -28 35 -1 6
-15 39 -32 75 -22 44 -28 68 -21 76 17 21 -9 27 -130 31 -64 2 -133 5 -153 7
-26 2 -42 -2 -53 -14z m100 -10 c3 -5 1 -10 -4 -10 -6 0 -11 5 -11 10 0 6 2
10 4 10 3 0 8 -4 11 -10z"/>
<path d="M2318 1563 c7 -3 16 -2 19 1 4 3 -2 6 -13 5 -11 0 -14 -3 -6 -6z"/>
<path d="M2198 1555 c-3 -3 -16 -8 -29 -10 -42 -8 -142 -50 -146 -62 -3 -7 17
-6 59 5 63 17 128 49 128 64 0 9 -4 10 -12 3z"/>
<path d="M1750 1534 c0 -8 112 -148 122 -152 4 -2 4 -10 1 -18 -4 -10 0 -12
11 -8 14 5 14 10 1 41 -9 20 -21 41 -29 47 -7 6 -25 28 -41 48 -15 21 -31 35
-36 32 -5 -3 -9 0 -9 5 0 6 -4 11 -10 11 -5 0 -10 -3 -10 -6z"/>
<path d="M13382 1520 c-21 -13 -35 -31 -38 -49 -4 -17 -12 -32 -20 -35 -16 -6
-49 -114 -64 -213 -10 -60 -9 -76 4 -102 24 -46 21 -117 -6 -144 l-23 -22 34
-52 c19 -29 37 -51 39 -49 10 11 40 150 35 164 -4 9 -2 13 4 9 6 -4 27 20 47
53 20 32 52 68 72 81 68 42 157 10 223 -81 26 -36 42 -79 72 -190 l12 -45 9
45 c9 48 -6 246 -23 296 -6 21 -8 10 -3 -41 3 -38 2 -66 -2 -62 -4 4 -18 49
-30 99 -25 98 -90 242 -123 272 -18 16 -21 16 -51 1 -18 -9 -34 -14 -37 -11
-3 3 6 10 20 15 32 13 40 26 23 40 -11 9 -22 7 -50 -10 -20 -11 -36 -17 -36
-11 0 5 14 15 30 22 24 10 28 15 19 26 -17 21 -98 17 -137 -6z m-8 -82 c7 -5
5 -8 -6 -8 -13 0 -18 7 -17 28 1 21 2 22 6 7 3 -11 10 -23 17 -27z m81 32 c-3
-5 -11 -10 -16 -10 -6 0 -7 5 -4 10 3 6 11 10 16 10 6 0 7 -4 4 -10z m-40 -20
c-3 -5 -11 -10 -16 -10 -6 0 -7 5 -4 10 3 6 11 10 16 10 6 0 7 -4 4 -10z m85
-15 c0 -2 -24 -17 -52 -32 -70 -37 -72 -38 -64 -24 4 6 28 22 54 36 47 24 62
29 62 20z m-130 -43 c0 -15 -2 -15 -10 -2 -13 20 -13 33 0 25 6 -3 10 -14 10
-23z m-33 -14 c-3 -7 -5 -2 -5 12 0 14 2 19 5 13 2 -7 2 -19 0 -25z m6 -41 c3
-8 1 -20 -4 -28 -6 -10 -9 -7 -9 14 0 29 5 35 13 14z m7 -72 c0 -8 -4 -16 -9
-19 -5 -3 -8 5 -8 19 0 14 3 22 8 19 5 -3 9 -11 9 -19z m0 -72 c0 -32 -5 -28
-14 10 -4 19 -3 26 4 22 5 -3 10 -18 10 -32z m-3 -70 c-3 -10 -5 -4 -5 12 0
17 2 24 5 18 2 -7 2 -21 0 -30z m4 -70 c-9 -15 -10 -12 -10 17 0 29 1 32 10
18 7 -12 7 -24 0 -35z"/>
<path d="M11951 1485 c-18 -36 -20 -48 -11 -66 7 -11 10 -30 7 -40 -4 -16 -2
-19 16 -13 34 10 42 21 27 39 -11 14 -11 20 -1 37 12 20 7 73 -8 82 -4 3 -18
-15 -30 -39z"/>
<path d="M13182 1490 c2 -19 8 -34 13 -33 17 3 17 27 0 48 -15 19 -15 18 -13
-15z"/>
<path d="M11885 1470 c-25 -48 -19 -86 19 -125 41 -40 56 -38 149 18 42 26 52
35 34 33 -13 -1 -37 -12 -52 -24 -87 -69 -162 -12 -133 101 9 35 2 34 -17 -3z"/>
<path d="M12608 1437 c29 -7 52 -7 75 1 28 9 23 10 -43 10 -72 0 -73 -1 -32
-11z"/>
<path d="M12123 1378 c-58 -62 -113 -137 -113 -158 0 -5 9 -10 20 -10 11 0 29
-9 39 -19 18 -18 126 -50 135 -40 2 2 0 45 -6 94 -5 50 -8 114 -6 143 2 28 0
52 -3 52 -3 0 -33 -28 -66 -62z m47 -8 c0 -11 -2 -20 -4 -20 -2 0 -6 9 -9 20
-3 11 -1 20 4 20 5 0 9 -9 9 -20z m-3 -72 c-3 -7 -5 -2 -5 12 0 14 2 19 5 13
2 -7 2 -19 0 -25z m0 -65 c-3 -10 -5 -4 -5 12 0 17 2 24 5 18 2 -7 2 -21 0
-30z m0 -65 c-3 -7 -5 -2 -5 12 0 14 2 19 5 13 2 -7 2 -19 0 -25z"/>
<path d="M12978 1403 c-2 -16 -2 -75 0 -132 3 -100 4 -103 21 -84 10 10 21 25
25 33 3 8 4 3 1 -11 -4 -25 -4 -25 43 -19 26 4 57 11 70 16 l23 10 -30 44
c-40 60 -100 130 -112 130 -6 0 -8 -4 -5 -8 2 -4 1 -14 -5 -22 -6 -11 -9 -4
-9 22 0 44 -17 60 -22 21z m34 -105 c-9 -9 -12 -7 -12 12 0 19 3 21 12 12 9
-9 9 -15 0 -24z m1 -58 c-7 -28 -13 -25 -13 6 0 14 4 23 9 20 5 -3 7 -15 4
-26z"/>
<path d="M2294 1365 c-1 -51 0 -55 22 -55 17 0 25 -7 30 -24 3 -13 19 -36 35
-52 16 -15 29 -33 29 -40 0 -10 -77 -44 -110 -49 -31 -5 -60 -17 -56 -24 8
-12 96 6 115 23 33 27 41 26 81 -10 55 -50 64 -68 44 -88 -14 -15 -13 -17 12
-26 15 -6 28 -9 30 -7 15 14 -110 265 -161 325 -18 20 -37 47 -44 60 -19 35
-26 26 -27 -33z"/>
<path d="M12903 1350 c-9 -16 -22 -30 -28 -30 -5 0 3 -11 18 -25 15 -14 27
-31 27 -38 0 -7 4 -6 10 3 12 19 13 120 1 120 -6 0 -18 -13 -28 -30z"/>
<path d="M12235 1331 c-3 -8 1 -21 8 -29 13 -12 19 -12 45 2 17 9 39 16 49 16
37 0 -4 18 -49 22 -35 2 -49 -1 -53 -11z"/>
<path d="M2155 1304 c-22 -19 -31 -31 -20 -25 19 8 74 61 64 61 -2 0 -22 -16
-44 -36z"/>
<path d="M1832 1246 c-40 -46 -49 -76 -28 -91 9 -7 16 -19 16 -27 0 -29 23
-45 55 -37 17 3 22 7 13 8 -10 0 -18 8 -18 16 0 8 8 15 18 16 10 0 12 3 5 6
-8 3 -11 14 -7 29 4 15 2 24 -6 24 -6 0 -8 -5 -4 -12 5 -7 2 -9 -9 -5 -11 4
-14 2 -10 -9 3 -7 0 -14 -5 -14 -19 0 -24 20 -10 37 11 14 11 16 -1 8 -11 -6
-13 -4 -8 9 4 10 7 21 7 25 0 4 9 17 20 29 12 12 17 22 11 22 -5 0 -22 -15
-39 -34z"/>
<path d="M8541 1234 c0 -11 3 -14 6 -6 3 7 2 16 -1 19 -3 4 -6 -2 -5 -13z"/>
<path d="M12588 1233 c6 -2 18 -2 25 0 6 3 1 5 -13 5 -14 0 -19 -2 -12 -5z"/>
<path d="M12638 1223 c7 -3 16 -2 19 1 4 3 -2 6 -13 5 -11 0 -14 -3 -6 -6z"/>
<path d="M2810 1171 l-75 -6 93 -29 c52 -16 96 -35 99 -42 3 -8 14 -12 27 -9
17 4 27 -5 55 -52 19 -31 34 -62 34 -70 0 -7 8 -13 17 -13 14 0 11 13 -20 75
-21 41 -48 88 -60 105 -12 16 -19 34 -16 38 6 10 -51 11 -154 3z"/>
<path d="M2989 1157 c6 -8 8 -17 4 -21 -4 -4 1 -4 11 0 15 6 17 3 11 -15 -4
-15 -2 -23 10 -27 25 -10 28 1 7 35 -10 17 -22 28 -25 24 -4 -3 -7 -1 -7 5 0
7 -5 12 -11 12 -8 0 -9 -4 0 -13z"/>
<path d="M11977 1144 c-21 -36 -36 -103 -28 -131 5 -18 6 -35 3 -39 -4 -4 3
-1 16 5 15 8 21 18 18 28 -4 8 -1 32 5 53 11 37 0 106 -14 84z"/>
<path d="M882 1091 c-10 -6 -10 -10 3 -21 12 -10 15 -10 15 4 0 11 5 14 12 10
7 -4 8 -3 4 4 -8 14 -16 15 -34 3z"/>
<path d="M13190 1079 c0 -18 2 -19 15 -9 15 12 12 30 -6 30 -5 0 -9 -10 -9
-21z"/>
<path d="M12475 1080 c-11 -5 -17 -9 -12 -11 9 -2 14 -3 52 -12 20 -5 48 -1
85 12 l55 20 -80 0 c-44 0 -89 -4 -100 -9z"/>
<path d="M3045 1070 c-7 -12 19 -53 28 -43 12 11 8 25 -5 17 -8 -5 -9 -2 -5 9
7 18 -8 33 -18 17z"/>
<path d="M917 1047 c-4 -11 -1 -27 7 -38 12 -18 14 -18 20 -4 8 23 8 27 -3 20
-5 -3 -11 5 -13 17 -3 21 -4 21 -11 5z"/>
<path d="M5100 905 l0 -145 600 0 600 0 0 145 0 145 -600 0 -600 0 0 -145z
m161 48 c13 -15 11 -16 -13 -9 -27 6 -28 5 -28 -32 0 -45 8 -56 27 -41 10 9
13 8 13 -5 0 -21 -46 -22 -54 0 -16 41 1 104 28 104 8 0 20 -7 27 -17z m81
-20 c12 -45 -6 -85 -35 -81 -18 2 -23 10 -25 46 -5 72 43 100 60 35z m47 10
l13 -28 14 28 c8 15 17 27 19 27 3 0 5 -27 5 -60 0 -38 -4 -60 -11 -60 -7 0
-9 10 -7 25 5 26 -6 35 -15 13 -4 -10 -8 -9 -16 2 -9 12 -11 10 -11 -12 0 -16
-4 -28 -10 -28 -6 0 -10 27 -10 60 0 65 10 76 29 33z m130 10 c11 -21 -3 -53
-24 -53 -9 0 -15 -10 -15 -25 0 -14 -4 -25 -10 -25 -11 0 -14 103 -3 113 12
13 42 7 52 -10z m77 -23 c2 -62 4 -70 12 -70 5 0 14 25 21 55 7 30 16 55 21
55 12 0 44 -110 35 -118 -4 -4 -10 -1 -12 6 -5 14 -33 16 -33 2 0 -5 -11 -10
-25 -10 -18 0 -29 8 -37 28 l-12 27 -4 -27 c-7 -51 -22 -29 -22 33 0 60 0 60
28 57 23 -3 27 -8 28 -38z m163 23 c6 -11 6 -24 0 -35 -6 -10 -5 -27 1 -43 8
-20 7 -26 -2 -23 -7 3 -14 14 -16 26 -5 30 -22 28 -22 -3 0 -14 -4 -25 -10
-25 -11 0 -14 103 -3 113 12 13 42 7 52 -10z m110 -47 c7 -27 9 -51 5 -55 -4
-3 -9 0 -11 7 -5 14 -33 16 -33 2 0 -5 -5 -10 -11 -10 -12 0 -6 51 12 98 12
32 23 20 38 -42z m43 39 c4 -35 22 -36 26 -2 2 15 8 25 13 22 12 -8 12 -115
-1 -115 -5 0 -10 11 -10 25 0 16 -6 25 -15 25 -9 0 -15 -9 -15 -25 0 -14 -4
-25 -10 -25 -6 0 -10 27 -10 60 0 59 16 84 22 35z m116 13 c13 -13 16 -66 6
-92 -8 -22 -41 -20 -54 3 -13 24 -13 43 0 75 10 28 29 33 48 14z m79 0 c10
-16 11 -108 1 -108 -4 0 -10 11 -14 25 -3 14 -10 25 -14 25 -5 0 -7 -11 -5
-25 1 -14 -2 -25 -6 -25 -9 0 -11 11 -11 75 0 19 1 37 1 40 2 10 40 4 48 -7z
m82 -44 c7 -30 10 -59 6 -62 -4 -4 -10 -1 -12 6 -3 6 -11 12 -18 12 -7 0 -15
-6 -18 -12 -2 -7 -7 -10 -11 -7 -6 6 4 61 19 107 9 26 22 10 34 -44z"/>
<path d="M5300 905 c0 -25 4 -45 10 -45 13 0 23 44 15 69 -11 36 -25 23 -25
-24z"/>
<path d="M5480 935 c0 -9 5 -15 11 -13 6 2 11 8 11 13 0 5 -5 11 -11 13 -6 2
-11 -4 -11 -13z"/>
<path d="M5560 935 c0 -8 5 -15 10 -15 6 0 10 7 10 15 0 8 -4 15 -10 15 -5 0
-10 -7 -10 -15z"/>
<path d="M5647 905 c-4 -8 -2 -17 3 -20 6 -4 10 3 10 14 0 25 -6 27 -13 6z"/>
<path d="M5720 935 c0 -9 5 -15 11 -13 6 2 11 8 11 13 0 5 -5 11 -11 13 -6 2
-11 -4 -11 -13z"/>
<path d="M5837 905 c-4 -8 -2 -17 3 -20 6 -4 10 3 10 14 0 25 -6 27 -13 6z"/>
<path d="M5994 936 c-8 -21 -1 -66 11 -69 6 -1 11 17 13 41 3 41 -12 59 -24
28z"/>
<path d="M6074 933 c2 -10 7 -18 12 -18 5 0 10 8 12 18 2 10 -3 17 -11 17 -9
0 -14 -8 -13 -17z"/>
<path d="M6162 900 c0 -14 2 -19 5 -12 2 6 2 18 0 25 -3 6 -5 1 -5 -13z"/>
<path d="M11770 1041 c0 -6 4 -13 10 -16 6 -3 7 1 4 9 -7 18 -14 21 -14 7z"/>
<path d="M3078 1014 c-11 -10 13 -64 28 -64 8 0 11 6 8 15 -4 8 -10 15 -16 15
-5 0 -7 4 -4 8 6 10 -8 34 -16 26z"/>
<path d="M1357 1003 c-4 -3 -7 -11 -7 -17 0 -6 5 -5 12 2 6 6 9 14 7 17 -3 3
-9 2 -12 -2z"/>
<path d="M1250 980 c0 -5 5 -10 10 -10 6 0 10 5 10 10 0 6 -4 10 -10 10 -5 0
-10 -4 -10 -10z"/>
<path d="M12932 983 c-12 -2 -20 -9 -17 -14 4 -5 -6 -6 -22 -4 -15 3 -41 2
-58 -3 -30 -9 -30 -9 45 -48 41 -21 79 -40 83 -42 4 -2 7 24 5 57 -1 34 -5 60
-8 60 -3 -1 -15 -4 -28 -6z"/>
<path d="M955 961 c-3 -5 -1 -12 5 -16 5 -3 10 1 10 9 0 18 -6 21 -15 7z"/>
<path d="M1139 919 c-49 -69 -9 -237 87 -370 44 -61 83 -149 99 -224 16 -76
64 -182 118 -262 39 -59 44 -63 79 -63 39 0 46 8 26 28 -7 7 -9 12 -5 12 4 0
3 9 -3 20 -8 15 -17 19 -31 15 -14 -5 -19 -2 -19 14 0 11 -4 23 -10 26 -15 9
-80 149 -80 172 0 12 -7 23 -15 27 -16 6 -21 36 -6 36 16 0 21 31 7 46 -18 18
-86 157 -86 176 0 8 9 24 21 37 12 12 18 25 15 28 -6 7 -56 -47 -56 -59 0 -15
-21 -8 -26 10 -3 9 -19 44 -34 77 -40 87 -72 183 -65 195 8 14 18 90 11 90 -2
0 -15 -14 -27 -31z"/>
<path d="M2102 906 c-22 -24 -47 -58 -56 -74 -15 -29 -15 -32 3 -41 10 -6 21
-24 24 -41 7 -34 30 -40 63 -15 18 13 18 14 -5 8 -21 -5 -23 -3 -16 18 4 13
14 29 22 36 9 7 10 13 4 17 -6 4 -19 -2 -31 -14 -25 -25 -26 -25 -33 2 -7 27
12 73 47 116 40 47 25 39 -22 -12z"/>
<path d="M2335 924 l-30 -26 33 22 c17 12 32 23 32 26 0 7 -4 5 -35 -22z"/>
<path d="M12221 924 c0 -11 3 -14 6 -6 3 7 2 16 -1 19 -3 4 -6 -2 -5 -13z"/>
<path d="M12240 905 c0 -38 6 -38 54 0 23 18 18 25 -23 31 -30 5 -31 4 -31
-31z"/>
<path d="M991 904 c0 -11 3 -14 6 -6 3 7 2 16 -1 19 -3 4 -6 -2 -5 -13z"/>
<path d="M1475 910 c3 -5 8 -10 11 -10 2 0 4 5 4 10 0 6 -5 10 -11 10 -5 0 -7
-4 -4 -10z"/>
<path d="M11835 910 c3 -5 8 -10 11 -10 2 0 4 5 4 10 0 6 -5 10 -11 10 -5 0
-7 -4 -4 -10z"/>
<path d="M670 899 c0 -4 7 -20 15 -35 8 -16 15 -22 15 -13 0 14 -29 61 -30 48z"/>
<path d="M11830 846 c0 -9 5 -16 10 -16 6 0 10 4 10 9 0 6 -4 13 -10 16 -5 3
-10 -1 -10 -9z"/>
<path d="M12476 840 c-21 -11 -61 -34 -88 -51 l-50 -33 42 -12 c76 -22 213
-36 244 -25 15 6 44 11 64 11 20 1 64 7 97 13 l60 13 -35 13 c-149 53 -265 91
-279 91 -9 -1 -33 -9 -55 -20z"/>
<path d="M12124 831 c-43 -17 -34 -33 16 -30 21 2 45 -3 53 -9 19 -16 30 -1
21 31 -7 28 -34 31 -90 8z"/>
<path d="M13018 819 c4 -31 6 -31 19 -13 10 14 16 16 21 7 5 -8 17 -10 37 -5
l29 8 -30 12 c-16 6 -41 14 -55 17 -24 6 -25 4 -21 -26z"/>
<path d="M13553 828 c-48 -53 -87 -163 -113 -316 l-17 -107 -18 39 c-11 26
-19 35 -24 27 -5 -8 -10 3 -14 28 -3 23 -17 62 -32 87 l-27 46 -19 -31 c-24
-39 -65 -42 -107 -6 -25 21 -40 25 -92 25 -56 0 -61 -2 -55 -19 6 -18 25 -128
25 -143 0 -5 5 -8 11 -8 7 0 9 10 7 25 -3 14 -1 25 3 25 5 0 9 -8 9 -18 0 -16
7 -18 53 -14 68 5 137 -27 191 -90 50 -58 47 -53 90 -138 21 -41 42 -79 46
-83 4 -4 10 14 14 40 18 133 87 253 146 253 33 0 75 -31 96 -72 9 -17 19 -69
23 -117 l7 -86 10 90 c27 259 -18 463 -123 555 -40 36 -63 38 -90 8z m47 -196
c0 -7 -4 -10 -10 -7 -5 3 -10 16 -10 28 0 18 2 19 10 7 5 -8 10 -21 10 -28z
m-517 -82 c3 -11 2 -20 -3 -20 -4 0 -10 9 -13 20 -3 11 -2 20 3 20 4 0 10 -9
13 -20z m594 -77 c-3 -10 -5 -4 -5 12 0 17 2 24 5 18 2 -7 2 -21 0 -30z m-287
-48 c0 -8 -4 -16 -9 -19 -5 -3 -8 5 -8 19 0 14 3 22 8 19 5 -3 9 -11 9 -19z
m-3 -77 c-3 -7 -5 -2 -5 12 0 14 2 19 5 13 2 -7 2 -19 0 -25z"/>
<path d="M1485 830 c-8 -13 3 -30 18 -30 7 0 6 4 -3 10 -10 6 -11 10 -2 10 6
0 12 5 12 10 0 6 -4 10 -9 10 -6 0 -13 -4 -16 -10z"/>
<path d="M701 809 c0 -15 5 -32 13 -39 8 -6 17 -21 19 -33 4 -19 4 -18 6 4 0
15 -5 29 -13 32 -8 3 -16 18 -19 34 l-4 28 -2 -26z"/>
<path d="M13450 810 c0 -5 5 -10 10 -10 6 0 10 5 10 10 0 6 -4 10 -10 10 -5 0
-10 -4 -10 -10z"/>
<path d="M1445 799 c-11 -17 1 -21 15 -4 8 9 8 15 2 15 -6 0 -14 -5 -17 -11z"/>
<path d="M1840 806 c0 -2 15 -14 34 -25 19 -12 37 -29 40 -38 6 -14 3 -14 -15
3 l-22 19 22 -42 c12 -24 26 -43 31 -43 6 0 10 -8 10 -19 0 -22 25 -45 39 -36
7 3 8 0 5 -10 -4 -9 0 -23 8 -33 8 -9 19 -29 26 -44 6 -16 19 -28 28 -28 10 0
14 -3 11 -6 -10 -10 12 -44 28 -44 8 0 16 -6 16 -12 1 -7 2 -20 3 -28 0 -8 8
-15 16 -14 9 1 17 -8 17 -20 1 -12 11 -27 23 -35 11 -7 20 -22 20 -32 0 -10 9
-23 20 -29 12 -6 20 -21 20 -35 0 -14 5 -25 10 -25 6 0 10 -7 10 -15 0 -8 9
-23 19 -32 11 -9 17 -22 14 -28 -2 -7 4 -19 14 -26 10 -8 24 -27 31 -42 7 -15
17 -25 22 -22 6 3 10 -5 10 -19 0 -15 8 -30 21 -37 19 -10 20 -9 14 13 -10 32
-45 88 -55 88 -13 0 -30 58 -19 64 5 2 4 3 -3 2 -7 -2 -21 1 -32 6 -14 8 -16
12 -6 18 15 9 5 30 -15 30 -7 0 -15 7 -18 14 -4 11 -1 13 10 9 11 -5 10 0 -5
15 -12 12 -22 27 -22 32 0 6 -5 9 -11 8 -6 -2 -14 3 -16 10 -3 8 1 10 13 5 12
-4 15 -3 10 5 -4 7 -14 12 -21 12 -8 0 -20 10 -27 23 -12 21 -14 27 -17 46 0
5 -16 25 -33 44 -68 74 -84 98 -55 81 8 -5 8 -2 -2 9 -7 9 -20 17 -27 17 -8 0
-13 3 -12 8 1 4 -4 18 -11 32 -25 53 -41 75 -52 75 -7 0 -18 18 -26 40 -15 43
-59 95 -80 95 -7 0 -13 -2 -13 -4z m127 -151 c0 -8 -4 -12 -9 -9 -5 3 -6 10
-3 15 9 13 12 11 12 -6z m163 -235 c0 -5 -2 -10 -4 -10 -3 0 -8 5 -11 10 -3 6
-1 10 4 10 6 0 11 -4 11 -10z"/>
<path d="M2773 803 c15 -2 37 -2 50 0 12 2 0 4 -28 4 -27 0 -38 -2 -22 -4z"/>
<path d="M11841 803 c-1 -7 -8 -10 -17 -6 -14 5 -13 2 2 -16 16 -18 20 -19 22
-6 2 8 1 21 -1 28 -4 9 -6 9 -6 0z"/>
<path d="M2550 778 c-30 -11 -57 -24 -58 -29 -2 -5 -8 -7 -13 -3 -5 3 -9 0 -9
-7 0 -22 109 0 152 31 39 29 39 29 11 28 -15 -1 -53 -10 -83 -20z"/>
<path d="M2870 784 c-7 -8 -11 -16 -9 -18 2 -2 47 -9 100 -15 52 -7 122 -20
154 -30 57 -18 61 -21 93 -82 29 -53 33 -66 22 -82 -18 -29 4 -74 40 -82 20
-4 32 -16 41 -40 10 -26 18 -32 28 -26 11 7 11 13 -1 37 -47 91 -66 132 -73
154 l-6 25 20 -25 c11 -14 21 -33 21 -42 0 -10 5 -18 10 -18 6 0 10 -9 10 -21
0 -11 4 -17 10 -14 6 4 7 -1 3 -11 -4 -12 -3 -15 5 -10 8 5 10 1 5 -10 -5 -13
-3 -15 7 -9 8 5 11 4 7 -3 -9 -14 3 -43 14 -36 5 3 9 14 9 24 0 28 -62 150
-73 143 -5 -3 -6 4 -2 17 4 14 3 20 -3 16 -8 -5 -20 17 -26 49 -1 6 -8 9 -15
7 -9 -2 -11 3 -7 13 4 11 2 14 -6 9 -8 -5 -9 -2 -5 9 4 11 -5 29 -29 53 -20
19 -38 33 -41 31 -6 -7 20 -47 30 -47 4 0 5 5 1 12 -4 7 -3 8 4 4 6 -4 9 -13
5 -21 -3 -8 0 -15 7 -15 6 0 8 -4 5 -10 -3 -5 3 -19 14 -31 11 -12 18 -27 14
-32 -3 -6 -1 -7 5 -3 7 4 12 1 12 -8 0 -23 -21 -20 -27 4 -3 11 -9 20 -14 20
-5 0 -9 5 -9 11 0 6 -15 35 -32 64 l-33 54 -137 0 c-109 0 -139 -3 -148 -15z"/>
<path d="M1405 780 c-3 -5 1 -10 10 -10 9 0 13 5 10 10 -3 6 -8 10 -10 10 -2
0 -7 -4 -10 -10z"/>
<path d="M1486 771 c-4 -5 0 -12 6 -15 7 -3 2 -4 -12 -3 -14 1 -26 -2 -27 -8
-3 -14 49 -8 59 7 4 7 8 16 8 21 0 10 -28 9 -34 -2z"/>
<path d="M1370 750 c0 -5 5 -10 10 -10 6 0 10 5 10 10 0 6 -4 10 -10 10 -5 0
-10 -4 -10 -10z"/>
<path d="M11971 723 c-6 -21 -10 -56 -9 -79 2 -36 5 -40 24 -36 20 4 21 7 12
28 -9 18 -8 28 0 36 7 7 12 29 12 50 0 51 -26 51 -39 1z"/>
<path d="M11824 725 c20 -50 24 -74 13 -78 -7 -2 -9 -8 -4 -12 13 -14 21 4 19
41 -2 20 -10 44 -19 53 -16 15 -16 15 -9 -4z"/>
<path d="M13216 731 c-9 -13 2 -51 14 -51 15 0 19 28 6 46 -9 12 -15 14 -20 5z"/>
<path d="M1416 715 c4 -8 10 -12 15 -9 14 8 10 24 -6 24 -9 0 -12 -6 -9 -15z"/>
<path d="M755 654 c15 -32 33 -79 40 -104 7 -25 14 -40 15 -35 1 6 6 -1 11
-14 5 -13 13 -21 16 -17 4 4 0 21 -9 39 -17 34 -37 80 -58 134 -7 18 -19 38
-27 44 -8 8 -4 -11 12 -47z"/>
<path d="M1380 700 c0 -5 7 -10 15 -10 8 0 15 5 15 10 0 6 -7 10 -15 10 -8 0
-15 -4 -15 -10z"/>
<path d="M1356 675 c3 -7 -3 -15 -13 -17 -14 -3 -15 -5 -3 -9 8 -3 22 2 32 12
15 16 15 17 -2 22 -12 3 -17 0 -14 -8z"/>
<path d="M11591 604 c0 -11 3 -14 6 -6 3 7 2 16 -1 19 -3 4 -6 -2 -5 -13z"/>
<path d="M1457 604 c-8 -8 3 -34 14 -34 5 0 9 9 9 20 0 19 -11 26 -23 14z"/>
<path d="M12240 579 c0 -13 -4 -18 -12 -13 -7 5 -8 3 -3 -5 4 -7 10 -24 14
-37 l6 -25 44 37 43 38 -43 13 c-24 7 -45 13 -46 13 -2 0 -3 -9 -3 -21z"/>
<path d="M12939 589 c-6 -4 -3 -9 7 -13 16 -6 16 -8 4 -16 -13 -8 -12 -10 3
-10 9 0 17 -4 17 -8 0 -5 6 -16 13 -25 10 -15 12 -13 10 15 -1 18 -2 41 -2 50
-1 17 -30 21 -52 7z"/>
<path d="M11830 581 c0 -6 5 -13 10 -16 6 -3 10 1 10 9 0 9 -4 16 -10 16 -5 0
-10 -4 -10 -9z"/>
<path d="M2385 556 c-78 -88 -125 -151 -123 -165 2 -9 13 -20 25 -26 12 -5 26
-19 32 -32 11 -23 61 -34 61 -13 0 6 -3 10 -7 10 -5 0 -7 24 -6 52 2 29 0 46
-4 38 -7 -17 -29 -40 -38 -40 -9 0 2 75 15 101 7 13 24 36 38 51 14 15 24 30
21 32 -2 2 -9 -1 -14 -8z"/>
<path d="M1655 530 c-20 -9 -19 -10 22 -14 18 -2 20 0 12 11 -6 7 -12 13 -13
12 0 0 -10 -4 -21 -9z"/>
<path d="M1380 516 c0 -9 5 -16 10 -16 6 0 10 4 10 9 0 6 -4 13 -10 16 -5 3
-10 -1 -10 -9z"/>
<path d="M1615 499 c-4 -6 -5 -13 -2 -16 7 -7 27 6 27 18 0 12 -17 12 -25 -2z"/>
<path d="M850 487 c0 -24 22 -81 42 -106 12 -16 18 -19 18 -9 0 9 -7 21 -15
28 -8 7 -18 30 -21 52 -6 37 -24 64 -24 35z"/>
<path d="M12608 483 c12 -2 30 -2 40 0 9 3 -1 5 -23 4 -22 0 -30 -2 -17 -4z"/>
<path d="M1575 470 c-3 -5 1 -10 9 -10 9 0 16 5 16 10 0 6 -4 10 -9 10 -6 0
-13 -4 -16 -10z"/>
<path d="M1660 448 c0 -9 7 -19 16 -22 15 -6 15 -4 3 11 -7 10 -15 20 -16 22
-2 2 -3 -3 -3 -11z"/>
<path d="M1540 439 c0 -5 5 -7 10 -4 6 3 10 8 10 11 0 2 -4 4 -10 4 -5 0 -10
-5 -10 -11z"/>
<path d="M12439 423 c-2 -4 -26 -20 -53 -34 -28 -14 -51 -30 -53 -36 -2 -6 13
-13 34 -16 21 -4 50 -9 64 -13 25 -5 26 -3 32 38 4 29 2 47 -7 56 -8 8 -15 10
-17 5z"/>
<path d="M12750 410 c-6 -10 -10 -28 -10 -39 0 -24 25 -27 79 -7 l35 12 -47
26 c-45 25 -47 26 -57 8z"/>
<path d="M12333 389 c-33 -21 -40 -29 -25 -29 8 1 70 50 62 50 -3 0 -20 -10
-37 -21z"/>
<path d="M1735 370 c3 -5 8 -10 11 -10 2 0 4 5 4 10 0 6 -5 10 -11 10 -5 0 -7
-4 -4 -10z"/>
<path d="M11962 311 c-33 -68 -15 -123 33 -105 13 5 13 9 0 26 -12 18 -12 24
0 42 14 22 13 62 -3 78 -4 4 -18 -14 -30 -41z"/>
<path d="M2910 345 c-8 -2 -57 -9 -109 -16 -76 -10 -91 -14 -78 -24 9 -7 14
-15 10 -18 -3 -4 1 -7 11 -7 11 0 15 -4 10 -12 -5 -9 -2 -8 10 1 9 8 15 20 12
27 -3 8 -2 13 2 12 4 -1 20 4 35 10 16 7 49 12 75 12 26 0 54 5 62 10 12 8 11
10 -5 9 -11 -1 -27 -3 -35 -4z"/>
<path d="M3031 333 l-26 -11 35 0 c19 0 55 3 80 7 l45 7 -54 5 c-29 2 -65 -1
-80 -8z"/>
<path d="M13250 321 c0 -12 5 -21 10 -21 6 0 10 6 10 14 0 8 -4 18 -10 21 -5
3 -10 -3 -10 -14z"/>
<path d="M11902 303 c-6 -16 -14 -49 -18 -75 -5 -41 -4 -47 15 -53 25 -8 25
-10 6 -64 l-14 -41 32 23 c45 34 67 43 36 15 -14 -13 -40 -42 -58 -66 l-33
-42 44 0 c23 0 52 7 62 15 23 17 57 20 72 5 5 -5 35 -11 66 -13 55 -4 56 -4
62 26 10 47 7 67 -8 67 -8 0 -16 5 -18 11 -2 6 -27 19 -56 28 l-53 18 57 7
c35 4 60 3 64 -3 3 -6 11 -2 18 9 8 14 8 21 1 26 -6 4 -15 1 -19 -6 -4 -7 -15
-10 -24 -7 -8 3 -18 2 -21 -3 -4 -6 -11 -10 -16 -10 -6 0 -7 5 -3 12 4 6 3 8
-4 4 -6 -3 -17 0 -24 8 -11 12 -18 11 -49 -7 -68 -39 -110 -3 -105 92 1 28 1
51 0 51 -1 0 -6 -12 -12 -27z m258 -244 c0 -11 -4 -17 -10 -14 -5 3 -10 13
-10 21 0 8 5 14 10 14 6 0 10 -9 10 -21z"/>
<path d="M11690 315 c0 -5 5 -17 10 -25 5 -8 10 -10 10 -5 0 6 -5 17 -10 25
-5 8 -10 11 -10 5z"/>
<path d="M1685 291 c-7 -12 12 -24 25 -16 11 7 4 25 -10 25 -5 0 -11 -4 -15
-9z"/>
<path d="M1655 259 c-10 -15 3 -25 16 -12 7 7 7 13 1 17 -6 3 -14 1 -17 -5z"/>
<path d="M11705 262 c-5 -4 -11 -18 -13 -31 -1 -14 0 -22 4 -18 3 3 13 -1 21
-9 19 -19 27 -12 18 15 -3 12 -11 18 -17 15 -6 -4 -8 1 -3 15 7 23 5 25 -10
13z"/>
<path d="M11836 251 c-4 -5 -2 -12 4 -16 17 -10 12 -48 -5 -41 -13 5 -14 2 -4
-16 11 -20 12 -20 24 -4 9 12 11 27 4 48 -10 37 -15 43 -23 29z"/>
<path d="M3337 220 c-33 -17 -63 -30 -68 -30 -5 0 -32 -11 -61 -24 -29 -13
-68 -29 -85 -36 -18 -7 -33 -16 -33 -21 0 -5 -7 -5 -17 -2 -12 5 -14 3 -8 -7
5 -8 3 -11 -6 -8 -8 3 -36 -4 -64 -14 -27 -11 -60 -24 -73 -29 -13 -5 -20 -14
-17 -19 4 -6 16 -3 32 10 30 23 51 27 33 5 -7 -8 -16 -13 -20 -10 -5 3 -11 1
-15 -5 -11 -17 3 -12 148 59 78 38 179 82 225 97 l82 27 23 -20 c42 -39 107
-63 166 -61 38 1 45 3 23 5 -19 3 -59 21 -90 41 -32 20 -60 35 -64 34 -5 -1
-8 4 -8 12 0 12 -21 27 -38 26 -4 -1 -33 -14 -65 -30z m-322 -150 c-3 -5 -12
-10 -18 -10 -7 0 -6 4 3 10 19 12 23 12 15 0z"/>
<path d="M1620 230 c0 -5 5 -10 10 -10 6 0 10 5 10 10 0 6 -4 10 -10 10 -5 0
-10 -4 -10 -10z"/>
<path d="M1690 225 c0 -9 -9 -15 -21 -15 -18 0 -20 -2 -8 -16 12 -14 14 -14
25 0 6 9 16 16 20 15 21 -4 26 2 14 16 -7 8 -16 15 -21 15 -5 0 -9 -7 -9 -15z"/>
<path d="M12948 216 c-85 -13 -101 -21 -66 -31 28 -9 114 -61 147 -89 l24 -21
-6 35 c-3 20 -2 55 3 78 8 48 16 46 -102 28z"/>
<path d="M3860 187 c0 -15 27 -43 34 -36 3 2 -4 15 -15 28 -13 16 -19 18 -19
8z"/>
<path d="M12200 182 c0 -10 7 -28 16 -40 l15 -22 35 27 c39 29 35 36 -28 46
-31 5 -38 3 -38 -11z"/>
<path d="M1633 173 c9 -9 19 -14 23 -11 10 10 -6 28 -24 28 -15 0 -15 -1 1
-17z"/>
<path d="M1601 154 c14 -17 32 -19 27 -2 -2 6 -12 12 -22 14 -14 2 -15 0 -5
-12z"/>
<path d="M11855 150 c-3 -5 -1 -10 4 -10 6 0 11 5 11 10 0 6 -2 10 -4 10 -3 0
-8 -4 -11 -10z"/>
<path d="M1572 138 c5 -15 28 -23 28 -10 0 5 -7 13 -16 16 -10 4 -14 1 -12 -6z"/>
<path d="M11828 145 c-3 -6 3 -23 12 -38 14 -22 19 -25 23 -13 4 9 0 19 -7 23
-7 5 -15 15 -18 23 -2 7 -7 10 -10 5z"/>
<path d="M13159 134 c-31 -13 -35 -19 -32 -42 3 -22 2 -23 -5 -8 -12 29 -20 7
-14 -41 l4 -43 48 0 c30 0 52 6 60 15 16 19 40 19 68 -1 14 -9 38 -14 65 -12
l42 3 -50 54 c-44 48 -111 91 -140 90 -5 0 -26 -7 -46 -15z m-19 -104 c0 -11
-2 -20 -4 -20 -2 0 -6 9 -9 20 -3 11 -1 20 4 20 5 0 9 -9 9 -20z"/>
<path d="M1545 110 c3 -5 13 -10 21 -10 8 0 14 5 14 10 0 6 -9 10 -21 10 -11
0 -17 -4 -14 -10z"/>
<path d="M13603 98 c-21 -22 -43 -68 -43 -89 0 -5 29 -9 65 -9 62 0 65 1 65
24 0 24 -37 87 -56 93 -5 2 -20 -7 -31 -19z"/>
<path d="M1734 96 c-4 -10 -2 -22 4 -28 8 -8 13 -7 18 6 4 10 2 22 -4 28 -8 8
-13 7 -18 -6z"/>
<path d="M1530 90 c0 -5 5 -10 10 -10 6 0 10 5 10 10 0 6 -4 10 -10 10 -5 0
-10 -4 -10 -10z"/>
<path d="M12417 73 c-10 -12 -13 -28 -10 -45 5 -26 9 -28 47 -27 31 2 34 3 13
6 -25 4 -28 8 -26 38 4 42 -3 50 -24 28z"/>
<path d="M11833 42 c0 -34 2 -40 13 -31 8 6 14 19 14 28 0 12 2 13 9 3 7 -11
9 -10 14 3 5 11 3 14 -5 9 -8 -5 -9 -1 -4 11 7 18 6 18 -13 1 -18 -17 -19 -17
-23 1 -2 10 -5 -1 -5 -25z"/>
<path d="M2588 43 c-26 -31 -30 -43 -14 -43 9 0 16 9 16 20 0 10 8 24 18 29 9
6 12 11 6 11 -6 0 -18 -8 -26 -17z"/>
<path d="M1630 16 c0 -9 7 -16 16 -16 17 0 14 22 -4 28 -7 2 -12 -3 -12 -12z"/>
</g>
</svg>
