<?xml version="1.0" standalone="no"?>
<!DOCTYPE svg PUBLIC "-//W3C//DTD SVG 20010904//EN"
 "http://www.w3.org/TR/2001/REC-SVG-20010904/DTD/svg10.dtd">
<svg version="1.0" xmlns="http://www.w3.org/2000/svg"
 width="1440.000000pt" height="435.000000pt" viewBox="0 0 1440.000000 435.000000"
 preserveAspectRatio="xMidYMid meet">

<g transform="translate(0.000000,435.000000) scale(0.100000,-0.100000)"
fill="#000000" stroke="none">
<path d="M1589 3993 c-11 -27 -54 -124 -96 -216 -42 -92 -74 -169 -72 -171 16
-15 464 -205 470 -199 8 10 189 415 189 425 0 8 -5 10 -267 127 -100 45 -187
81 -193 81 -6 0 -20 -21 -31 -47z m168 -154 c37 -17 70 -31 73 -31 3 0 22 -9
43 -19 38 -20 42 -39 8 -39 -12 0 -18 -7 -17 -17 1 -12 -5 -17 -18 -15 -11 2
-16 -2 -14 -9 6 -18 26 -26 88 -37 43 -8 7 -10 -156 -8 -193 1 -214 3 -233 20
-30 27 -26 54 13 91 39 36 87 56 65 27 -7 -9 7 2 31 26 25 23 45 42 46 42 1 0
33 -14 71 -31z"/>
<path d="M1590 3764 c0 -31 18 -42 85 -52 63 -10 75 -8 75 11 0 8 -3 8 -9 -2
-7 -11 -17 -9 -55 7 -25 12 -46 25 -46 31 0 6 -7 8 -16 4 -9 -3 -20 0 -25 8
-7 11 -9 9 -9 -7z"/>
<path d="M1804 3756 c-10 -8 -16 -17 -13 -20 3 -3 14 3 24 14 21 23 17 26 -11
6z"/>
<path d="M696 3737 c-27 -20 -16 -49 24 -62 41 -14 51 -40 20 -50 -14 -5 -28
-1 -42 12 -15 12 -20 14 -16 4 7 -23 33 -34 60 -28 51 13 46 60 -8 77 -24 8
-34 17 -32 28 4 18 20 20 53 6 18 -7 18 -6 6 9 -16 20 -41 22 -65 4z"/>
<path d="M1150 3729 c0 -11 5 -17 10 -14 6 3 10 13 10 21 0 8 -4 14 -10 14 -5
0 -10 -9 -10 -21z"/>
<path d="M1202 3742 c-27 -9 -10 -20 23 -15 l36 6 -26 -58 c-14 -32 -23 -60
-20 -63 3 -3 7 -3 9 -1 10 10 54 129 48 130 -30 4 -59 5 -70 1z"/>
<path d="M1303 3743 c-16 -6 -17 -43 -2 -43 5 0 8 4 5 9 -8 12 21 34 34 26 17
-10 12 -25 -25 -68 -19 -22 -35 -45 -35 -49 0 -13 83 -5 87 8 2 7 -8 9 -27 6
-36 -5 -39 10 -6 32 59 38 32 105 -31 79z"/>
<path d="M790 3720 c0 -5 5 -10 10 -10 6 0 10 5 10 10 0 6 -4 10 -10 10 -5 0
-10 -4 -10 -10z"/>
<path d="M792 3655 c-1 -25 2 -45 8 -45 5 0 10 20 10 45 0 25 -4 45 -8 45 -5
0 -10 -20 -10 -45z"/>
<path d="M835 3654 c0 -26 5 -44 11 -44 7 0 11 16 10 37 -1 28 3 38 17 41 14
3 17 -4 17 -37 0 -27 4 -41 13 -41 10 0 12 11 8 43 -6 40 -8 42 -41 43 -35 2
-35 2 -35 -42z"/>
<path d="M937 3679 c-18 -25 -11 -56 13 -64 21 -7 50 3 50 17 0 6 -7 5 -16 -2
-12 -11 -18 -10 -32 4 -21 21 -4 52 27 49 13 -2 20 1 16 7 -11 17 -43 11 -58
-11z"/>
<path d="M1022 3688 c-7 -7 -12 -21 -12 -33 0 -42 45 -60 71 -28 13 15 12 15
-10 4 -16 -9 -26 -10 -34 -2 -7 7 -5 12 9 17 31 11 43 24 37 40 -6 17 -44 19
-61 2z m43 -8 c3 -6 -1 -13 -10 -16 -19 -8 -30 0 -20 15 8 14 22 14 30 1z"/>
<path d="M8445 3601 c-47 -12 -139 -57 -155 -77 -14 -16 -12 -17 30 -11 74 11
165 52 166 76 1 12 -1 21 -5 20 -3 -1 -19 -4 -36 -8z"/>
<path d="M845 3546 c-17 -7 -36 -25 -43 -40 -6 -14 -32 -124 -57 -244 -63
-300 -68 -323 -71 -319 -8 8 -94 462 -90 474 4 9 25 13 66 13 83 0 100 11 100
61 0 58 -22 65 -152 50 -79 -9 -125 -9 -200 1 -90 11 -99 11 -118 -7 -24 -22
-26 -67 -4 -89 9 -9 33 -16 57 -16 48 0 59 -6 75 -36 6 -12 48 -170 92 -350
74 -305 82 -331 110 -356 48 -44 120 -33 150 22 10 18 58 232 100 443 12 56
24 110 28 121 5 12 27 -78 61 -255 30 -151 60 -286 67 -301 19 -38 52 -58 96
-58 52 0 85 32 107 105 11 33 20 51 20 40 2 -39 49 -93 106 -120 90 -44 231
-36 307 17 27 19 28 19 59 -4 30 -22 37 -23 242 -23 189 0 214 2 229 18 24 23
23 52 -3 78 -17 17 -30 20 -65 16 -32 -3 -44 -1 -48 10 -3 8 -6 102 -6 209 l0
194 160 0 160 0 -1 -137 c-1 -76 -4 -169 -8 -208 l-6 -70 -46 3 c-40 3 -49 0
-66 -22 -25 -31 -20 -70 10 -83 17 -7 276 -10 359 -4 9 0 21 14 26 31 9 24 7
33 -10 55 -18 23 -27 26 -67 23 l-46 -3 -3 207 -2 207 67 3 c62 3 69 5 83 31
13 24 13 30 0 55 -14 25 -21 27 -83 30 l-67 3 0 34 c0 21 9 44 26 64 26 31 26
31 129 31 157 0 149 13 153 -262 1 -122 -1 -263 -5 -313 l-8 -90 -43 3 c-52 5
-82 -17 -82 -58 0 -50 16 -54 224 -56 105 -1 217 -6 249 -12 94 -18 184 3 264
61 108 77 126 217 29 217 -43 0 -64 -17 -77 -61 -32 -107 -175 -140 -262 -61
-26 23 -54 80 -58 117 l-4 30 224 3 c156 2 229 6 239 14 11 10 13 30 10 88 -7
119 -58 199 -156 247 -49 24 -69 28 -142 28 -73 0 -93 -4 -142 -28 -31 -15
-70 -43 -86 -61 l-30 -34 -4 101 c-5 121 -23 167 -81 205 -38 26 -48 27 -182
30 -88 3 -158 -1 -185 -8 -81 -22 -140 -104 -140 -197 l0 -33 -160 0 -160 0 0
25 c0 34 25 82 49 95 11 5 34 10 51 10 25 0 31 -3 26 -16 -7 -19 18 -70 39
-78 32 -12 73 -6 99 15 40 31 37 90 -7 134 -38 38 -89 55 -168 55 -135 0 -205
-60 -224 -192 l-6 -48 -49 0 c-56 0 -80 -18 -80 -60 0 -42 24 -60 81 -60 l49
0 -1 -177 c-2 -224 -4 -237 -46 -241 -18 -2 -41 2 -53 8 -19 10 -20 20 -20
188 0 191 -8 238 -47 291 -41 53 -102 75 -208 76 -77 0 -98 -4 -143 -26 -60
-30 -61 -27 -34 56 l17 50 50 3 c27 2 58 10 67 19 24 22 23 58 -3 84 -20 20
-27 21 -98 13 -42 -5 -110 -7 -151 -4 -123 7 -188 6 -199 -5 -18 -19 -22 -60
-7 -80 11 -16 30 -21 88 -25 68 -5 73 -7 76 -29 4 -26 -90 -481 -95 -465 -2 5
-27 132 -57 281 -30 154 -61 284 -70 298 -29 44 -84 56 -141 31z m779 -338
c35 -31 43 -77 19 -106 -15 -19 -38 -26 -139 -41 -121 -19 -170 -36 -212 -75
l-24 -21 7 30 c25 108 24 107 48 90 34 -24 94 -19 122 10 29 28 31 51 9 83 -9
13 -14 25 -13 26 21 17 54 25 101 26 45 0 62 -5 82 -22z m1676 3 c38 -20 80
-73 80 -102 0 -18 -11 -19 -155 -19 -146 0 -155 1 -155 19 0 29 49 81 95 102
51 24 91 24 135 0z m-1665 -361 c-60 -116 -279 -93 -249 26 9 34 51 53 155 69
50 7 94 16 97 20 15 15 12 -85 -3 -115z"/>
<path d="M8358 3473 c6 -2 18 -2 25 0 6 3 1 5 -13 5 -14 0 -19 -2 -12 -5z"/>
<path d="M5301 3429 c-115 -22 -156 -111 -115 -248 8 -28 22 -55 29 -58 8 -3
32 4 52 15 34 17 38 23 35 53 -2 19 -7 41 -12 49 -4 8 -10 32 -14 53 -6 32 -3
40 20 62 37 34 81 45 204 51 58 3 125 8 150 11 l45 7 -45 7 c-61 10 -294 9
-349 -2z"/>
<path d="M5708 3413 c7 -3 16 -2 19 1 4 3 -2 6 -13 5 -11 0 -14 -3 -6 -6z"/>
<path d="M6588 3394 c-3 -2 3 -21 13 -42 11 -20 19 -48 18 -62 0 -19 -5 -12
-21 28 -25 63 -35 64 -12 1 19 -54 20 -139 0 -176 -37 -73 -124 -132 -315
-214 -41 -17 -127 -46 -190 -64 -150 -42 -162 -45 -155 -34 3 5 0 9 -5 9 -6 0
-11 -7 -11 -16 0 -12 -7 -14 -32 -9 -25 5 -29 4 -18 -4 12 -9 9 -11 -15 -11
-49 -1 -180 -34 -279 -70 -77 -28 -113 -18 -108 28 3 23 -1 34 -13 39 -24 8
-118 -43 -163 -89 -20 -21 -45 -38 -54 -38 -10 0 -18 -5 -18 -11 0 -5 -5 -7
-11 -3 -6 3 -14 3 -18 -2 -13 -19 -61 -44 -83 -44 -13 0 -34 -8 -47 -17 -14
-9 -21 -11 -17 -5 4 7 3 12 -3 12 -5 0 -14 -6 -18 -14 -4 -7 -18 -18 -31 -25
-12 -7 -20 -16 -17 -21 3 -6 -1 -7 -10 -4 -9 4 -24 -1 -35 -11 -10 -9 -24 -14
-29 -10 -6 3 -11 2 -11 -4 0 -5 -10 -13 -22 -17 -13 -3 -41 -14 -63 -24 -22
-9 -89 -36 -150 -60 -272 -104 -363 -143 -402 -170 -47 -33 -47 -33 -55 40 -2
16 -9 24 -18 23 -9 -1 -23 16 -37 47 -24 55 -37 63 -39 25 -1 -14 2 -22 7 -19
5 3 7 -1 4 -8 -3 -7 3 -42 13 -78 18 -61 20 -65 51 -68 18 -2 61 6 96 17 35
12 70 21 76 21 16 0 3 -13 -15 -16 -21 -3 -78 -32 -106 -54 -20 -16 -22 -20
-7 -20 9 0 17 5 17 10 0 6 10 10 21 10 18 0 19 -2 9 -15 -16 -19 -7 -30 17
-20 10 5 23 7 30 6 6 -1 14 3 18 9 3 5 15 10 26 10 18 0 17 -3 -9 -25 -16 -14
-37 -43 -46 -65 -9 -23 -21 -38 -26 -35 -6 4 -10 -9 -10 -32 0 -21 -9 -53 -20
-71 -20 -33 -24 -82 -5 -82 5 0 -21 -17 -58 -37 -37 -20 -87 -53 -109 -73 -38
-33 -42 -41 -40 -79 4 -61 12 -76 95 -179 41 -52 74 -100 73 -107 -1 -8 -25
-38 -52 -67 -63 -66 -84 -99 -88 -133 -3 -26 5 -38 63 -100 10 -11 20 -24 21
-30 2 -5 9 -15 17 -20 11 -8 7 -20 -21 -65 -19 -30 -32 -58 -30 -62 3 -5 31
14 62 40 79 68 251 182 392 261 243 135 729 369 1239 597 29 13 99 57 155 97
55 40 117 83 137 95 52 32 54 59 13 167 -20 50 -37 97 -40 105 -4 12 56 35
278 108 345 114 594 205 668 245 30 17 94 50 143 74 49 25 87 50 87 59 0 8 5
14 11 14 5 0 8 -4 5 -9 -10 -16 32 0 49 19 15 17 15 19 -4 25 -11 3 -39 1 -62
-5 -22 -6 -43 -9 -46 -6 -8 7 18 104 44 165 26 61 31 98 9 69 -7 -10 -24 -18
-37 -18 -19 0 -21 -2 -9 -10 12 -8 11 -10 -7 -10 -12 0 -27 -9 -33 -20 -14
-26 -40 -26 -40 -1 0 11 3 22 8 24 4 3 7 54 7 114 l0 109 -40 43 c-66 69 -173
110 -344 131 -47 6 -102 13 -122 15 -20 3 -38 2 -41 -1z m39 -166 c-3 -7 -5
-2 -5 12 0 14 2 19 5 13 2 -7 2 -19 0 -25z m469 -510 c-3 -13 -5 -25 -6 -28
-2 -3 -2 -8 -2 -11 1 -4 -8 -5 -18 -2 -11 3 -20 9 -20 14 0 5 7 6 15 3 8 -4
15 -1 15 5 0 6 -5 11 -12 11 -6 0 -3 7 8 15 25 19 25 19 20 -7z m-901 -329
c-4 -5 -13 -9 -21 -9 -8 0 -14 -4 -14 -9 0 -5 -7 -11 -15 -15 -17 -6 -79 4
-70 12 2 3 0 11 -5 17 -8 9 6 12 60 13 41 0 68 -3 65 -9z"/>
<path d="M8112 3133 c-18 -8 -31 -17 -29 -19 5 -5 70 17 82 27 15 15 -17 10
-53 -8z"/>
<path d="M7995 3081 c-22 -11 -33 -20 -25 -20 8 0 31 8 50 19 45 25 27 25 -25
1z"/>
<path d="M7330 3049 c0 -5 5 -7 10 -4 6 3 10 8 10 11 0 2 -4 4 -10 4 -5 0 -10
-5 -10 -11z"/>
<path d="M7367 3033 c-4 -3 -7 -11 -7 -17 0 -6 5 -5 12 2 6 6 9 14 7 17 -3 3
-9 2 -12 -2z"/>
<path d="M7286 2984 c-9 -24 -7 -28 9 -14 17 14 20 30 6 30 -5 0 -12 -7 -15
-16z"/>
<path d="M7327 2964 c-4 -4 -7 -14 -7 -23 0 -11 3 -12 11 -4 6 6 10 16 7 23
-2 6 -7 8 -11 4z"/>
<path d="M7252 2911 c-12 -35 1 -42 19 -10 7 14 7 25 1 31 -6 6 -13 -1 -20
-21z"/>
<path d="M8918 2933 c7 -3 16 -2 19 1 4 3 -2 6 -13 5 -11 0 -14 -3 -6 -6z"/>
<path d="M6115 2895 c-16 -8 -23 -14 -15 -14 8 0 29 6 45 14 17 7 23 13 15 13
-8 0 -28 -6 -45 -13z"/>
<path d="M7291 2881 c-9 -16 -10 -26 -2 -34 13 -13 25 12 19 40 -3 16 -5 15
-17 -6z"/>
<path d="M3565 2868 c-31 -28 -44 -73 -33 -115 20 -75 122 -100 179 -44 24 24
29 38 29 76 0 38 -5 52 -29 76 -38 38 -106 41 -146 7z"/>
<path d="M6048 2873 c6 -2 18 -2 25 0 6 3 1 5 -13 5 -14 0 -19 -2 -12 -5z"/>
<path d="M5948 2843 c7 -3 16 -2 19 1 4 3 -2 6 -13 5 -11 0 -14 -3 -6 -6z"/>
<path d="M7220 2830 c0 -13 5 -20 13 -17 6 2 12 10 12 17 0 7 -6 15 -12 18 -8
2 -13 -5 -13 -18z"/>
<path d="M7370 2810 c-19 -11 -30 -19 -25 -19 6 0 26 8 45 19 19 11 31 19 25
19 -5 0 -26 -8 -45 -19z"/>
<path d="M8495 2750 c-13 -6 -15 -9 -5 -9 8 0 22 4 30 9 18 12 2 12 -25 0z"/>
<path d="M8386 2705 c-11 -8 -26 -15 -33 -15 -8 0 -33 -9 -55 -20 -23 -11 -48
-20 -56 -20 -12 0 -12 -3 -2 -15 11 -13 8 -15 -18 -15 -17 0 -33 -4 -36 -9 -3
-5 -17 -8 -32 -8 -14 0 -30 -7 -35 -14 -5 -8 -9 -10 -9 -6 0 4 -10 3 -21 -4
-12 -6 -17 -14 -12 -18 6 -3 12 -12 14 -19 3 -9 23 -3 69 22 36 19 98 51 138
72 39 21 72 42 72 46 0 4 8 8 19 8 10 0 24 7 31 15 17 20 -7 20 -34 0z"/>
<path d="M990 2571 c0 -6 5 -13 10 -16 6 -3 10 -46 10 -96 0 -53 -4 -89 -10
-89 -5 0 -10 -4 -10 -10 0 -5 14 -10 30 -10 26 0 30 3 26 23 -14 62 -12 72 16
75 22 3 32 -3 48 -30 11 -18 17 -41 14 -50 -4 -15 1 -18 25 -18 17 0 31 2 31
5 0 2 -14 27 -30 56 l-31 51 21 15 c30 21 24 73 -10 90 -29 15 -140 17 -140 4z
m121 -21 c26 -15 24 -46 -5 -66 -22 -13 -66 -13 -66 1 0 3 0 21 0 40 0 31 3
35 26 35 14 0 34 -5 45 -10z"/>
<path d="M2115 2465 c0 -114 0 -115 24 -115 17 0 22 4 17 16 -3 9 -6 60 -6
115 0 88 -2 99 -17 99 -16 0 -18 -12 -18 -115z"/>
<path d="M2245 2570 c-3 -5 -1 -10 4 -10 7 0 11 -35 11 -95 0 -57 -4 -95 -10
-95 -5 0 -10 -4 -10 -10 0 -5 14 -10 30 -10 17 0 30 5 30 10 0 6 -4 10 -10 10
-6 0 -10 34 -10 83 l1 82 36 -77 c20 -43 39 -78 43 -78 4 0 24 35 43 78 l37
77 -3 -93 -2 -92 28 0 c15 0 27 5 27 10 0 6 -5 10 -11 10 -7 0 -10 34 -7 105
3 101 2 105 -18 105 -17 0 -28 -16 -54 -75 -18 -42 -36 -72 -40 -68 -4 4 -20
38 -35 76 -23 55 -32 67 -51 67 -13 0 -26 -4 -29 -10z"/>
<path d="M2660 2578 c0 -2 -1 -54 -3 -116 -2 -112 -2 -112 22 -112 17 0 22 4
17 16 -3 9 -6 60 -6 115 0 81 -3 99 -15 99 -8 0 -15 -1 -15 -2z"/>
<path d="M2807 2535 l6 -45 -31 6 c-61 12 -105 -69 -67 -124 13 -18 25 -21 75
-21 56 1 74 9 50 24 -6 3 -10 50 -10 106 0 81 -3 99 -15 99 -12 0 -13 -9 -8
-45z m-2 -110 c0 -45 -2 -50 -23 -53 -32 -5 -52 15 -52 52 0 39 17 58 50 54
23 -3 25 -7 25 -53z"/>
<path d="M1817 2544 c-30 -16 -38 -41 -9 -29 9 4 25 10 35 12 9 3 17 9 17 14
0 16 -15 17 -43 3z"/>
<path d="M7978 2505 c-12 -14 -25 -25 -30 -25 -5 0 -37 -18 -72 -40 -35 -22
-67 -40 -73 -40 -5 0 -18 -8 -29 -18 -34 -31 -152 -112 -164 -112 -20 0 -60
-32 -60 -48 0 -13 2 -13 18 1 10 10 24 17 31 17 12 0 20 6 65 45 22 20 138 85
151 85 4 0 5 -7 1 -15 -9 -25 35 -23 65 3 10 9 34 19 52 22 24 4 32 10 32 25
0 13 7 20 20 20 11 0 21 8 23 18 2 10 10 30 17 44 25 47 -10 61 -47 18z m22
-35 c0 -5 -5 -10 -11 -10 -5 0 -7 5 -4 10 3 6 8 10 11 10 2 0 4 -4 4 -10z
m-35 -30 c-3 -5 -11 -10 -16 -10 -6 0 -7 5 -4 10 3 6 11 10 16 10 6 0 7 -4 4
-10z m-45 -30 c0 -5 -5 -10 -11 -10 -5 0 -7 5 -4 10 3 6 8 10 11 10 2 0 4 -4
4 -10z"/>
<path d="M1224 2488 c-22 -10 -44 -47 -44 -72 0 -7 9 -25 21 -40 28 -35 80
-36 114 -1 28 27 31 46 13 78 -23 45 -60 57 -104 35z m70 -24 c22 -21 20 -60
-4 -84 -24 -24 -38 -25 -62 -3 -36 32 -14 103 32 103 10 0 26 -7 34 -16z"/>
<path d="M1345 2490 c-4 -6 -3 -16 2 -23 14 -18 16 -84 4 -92 -19 -11 -12 -25
13 -25 22 0 23 3 18 50 -5 54 8 80 39 80 23 0 33 -36 26 -91 -5 -36 -3 -39 19
-39 27 0 29 3 13 29 -17 26 -3 88 21 96 34 11 42 -4 38 -66 -4 -55 -3 -59 18
-59 20 0 21 4 17 48 -2 26 -6 57 -9 69 -5 28 -44 39 -74 23 -16 -9 -25 -9 -33
-1 -15 15 -50 14 -66 -1 -11 -10 -14 -10 -18 0 -6 15 -20 16 -28 2z"/>
<path d="M1592 2493 c-10 -4 -10 -8 -1 -19 12 -15 14 -129 3 -166 -4 -14 0
-18 18 -18 23 0 23 2 19 82 -3 70 -1 84 15 95 23 17 39 16 58 -3 35 -34 0
-113 -45 -99 -11 4 -19 2 -19 -4 0 -6 15 -11 34 -11 24 0 40 7 53 23 l18 24
18 -24 c28 -37 117 -29 117 11 0 6 -5 5 -12 -2 -23 -23 -88 -9 -88 20 0 4 12
8 28 8 58 0 96 57 53 80 -33 17 -62 11 -91 -20 l-27 -29 -11 24 c-13 29 -52
41 -80 26 -14 -7 -23 -8 -27 -1 -7 11 -13 11 -33 3z m258 -33 c0 -19 -33 -40
-61 -40 -13 0 -11 34 3 48 20 20 58 15 58 -8z"/>
<path d="M1995 2475 c-31 -30 -34 -84 -7 -108 22 -20 83 -22 100 -5 17 17 15
33 -2 19 -8 -7 -30 -11 -48 -9 -44 4 -44 30 -1 39 60 12 85 57 44 79 -32 16
-60 12 -86 -15z m75 -15 c0 -13 -10 -24 -26 -30 -39 -15 -54 -13 -47 8 11 30
25 42 49 42 17 0 24 -6 24 -20z"/>
<path d="M2520 2480 c-51 -51 -26 -122 44 -128 41 -4 63 10 77 47 27 69 -69
133 -121 81z m82 -17 c24 -21 23 -58 -2 -83 -24 -24 -29 -24 -58 -4 -38 26
-23 104 20 104 12 0 30 -7 40 -17z"/>
<path d="M2895 2488 c-46 -27 -58 -75 -29 -116 20 -29 83 -31 109 -2 10 11 13
20 7 20 -6 0 -14 -4 -17 -10 -9 -15 -61 -12 -75 5 -10 12 -10 16 1 19 55 15
73 23 83 39 24 38 -34 72 -79 45z m60 -18 c8 -13 -31 -50 -55 -50 -24 0 -26
22 -4 44 17 18 50 21 59 6z"/>
<path d="M4175 2370 c-4 -12 -5 -24 -2 -27 3 -2 8 5 12 17 4 12 5 24 2 27 -3
2 -8 -5 -12 -17z"/>
<path d="M3012 2368 c5 -15 28 -18 29 -3 0 6 -7 12 -17 13 -10 3 -15 -1 -12
-10z"/>
<path d="M8055 2370 c-3 -5 1 -10 9 -10 9 0 16 5 16 10 0 6 -4 10 -9 10 -6 0
-13 -4 -16 -10z"/>
<path d="M4201 2120 c-13 -11 -21 -20 -18 -20 14 0 57 24 57 32 0 13 -13 9
-39 -12z"/>
<path d="M7335 2110 c-3 -5 -2 -10 4 -10 5 0 13 5 16 10 3 6 2 10 -4 10 -5 0
-13 -4 -16 -10z"/>
<path d="M7245 2059 c-22 -16 -44 -35 -50 -41 -17 -17 49 19 70 40 12 10 27
22 35 25 13 5 13 5 0 6 -8 0 -33 -13 -55 -30z"/>
<path d="M7455 2070 c21 -23 45 -26 45 -6 0 7 -10 16 -22 20 -38 10 -42 7 -23
-14z"/>
<path d="M7135 1989 c-16 -11 -42 -25 -57 -31 -16 -7 -28 -16 -28 -20 0 -4 -5
-8 -11 -8 -6 0 -45 -22 -87 -50 -81 -53 -79 -67 4 -25 67 35 158 96 219 147
18 16 -10 7 -40 -13z"/>
<path d="M4188 1843 c7 -3 16 -2 19 1 4 3 -2 6 -13 5 -11 0 -14 -3 -6 -6z"/>
<path d="M4875 850 c-3 -5 -2 -10 4 -10 5 0 13 5 16 10 3 6 2 10 -4 10 -5 0
-13 -4 -16 -10z"/>
<path d="M312 672 c-9 -7 -12 -51 -10 -188 l3 -179 570 -3 c527 -2 571 -1 583
15 15 21 17 315 2 344 -10 18 -27 19 -573 19 -309 0 -568 -4 -575 -8z m336
-124 c19 -19 14 -33 -6 -15 -25 23 -39 21 -57 -7 -12 -18 -13 -30 -6 -50 12
-30 36 -34 63 -9 10 9 18 12 18 7 0 -18 -24 -34 -52 -34 -30 0 -48 23 -48 61
0 46 58 77 88 47z m101 -32 c7 -8 11 -27 9 -43 -2 -23 -9 -29 -32 -31 -16 -2
-32 2 -37 10 -30 46 26 105 60 64z m147 -36 c1 -39 1 -40 -3 -7 -3 28 -9 37
-24 37 -15 0 -19 -7 -19 -35 0 -19 -4 -35 -10 -35 -5 0 -10 16 -10 36 0 49
-32 44 -41 -6 l-6 -35 -2 42 c-1 46 3 49 74 48 l40 0 1 -45z m99 25 c19 -29 2
-65 -30 -65 -16 0 -25 -6 -25 -15 0 -8 -4 -15 -10 -15 -5 0 -10 24 -10 54 0
44 4 55 18 59 28 8 44 3 57 -18z m65 14 c0 -4 -5 -9 -10 -11 -6 -2 -12 -16
-14 -31 -5 -46 -16 -43 -16 4 0 38 3 45 20 45 11 0 20 -3 20 -7z m74 -1 c3 -7
7 -28 10 -46 6 -33 6 -33 -32 -30 -49 4 -58 35 -13 44 17 4 31 11 31 16 0 6
-11 8 -25 6 -26 -5 -35 6 -12 15 22 9 38 7 41 -5z m63 -9 c-10 -6 -17 -22 -17
-39 0 -17 -4 -30 -10 -30 -5 0 -10 18 -10 39 0 33 4 40 23 43 29 5 36 -1 14
-13z"/>
<path d="M696 494 c-7 -19 10 -44 30 -44 15 0 28 35 19 50 -10 16 -42 12 -49
-6z"/>
<path d="M944 496 c-9 -24 4 -48 23 -44 12 2 18 12 18 28 0 29 -32 41 -41 16z"/>
<path d="M1095 469 c-4 -6 -4 -13 -1 -16 8 -8 36 5 36 17 0 13 -27 13 -35 -1z"/>
<path d="M5000 479 c-91 -39 -129 -59 -82 -45 13 5 22 3 22 -3 0 -6 -9 -11
-19 -11 -11 0 -26 -6 -33 -14 -8 -7 -32 -19 -53 -26 -66 -21 -96 -33 -93 -35
15 -14 257 55 378 107 l45 20 -30 24 c-16 13 -32 24 -35 23 -3 0 -48 -19 -100
-40z"/>
<path d="M4698 343 c7 -3 16 -2 19 1 4 3 -2 6 -13 5 -11 0 -14 -3 -6 -6z"/>
</g>
</svg>
