<?xml version="1.0" standalone="no"?>
<!DOCTYPE svg PUBLIC "-//W3C//DTD SVG 20010904//EN"
 "http://www.w3.org/TR/2001/REC-SVG-20010904/DTD/svg10.dtd">
<svg version="1.0" xmlns="http://www.w3.org/2000/svg"
 width="1440.000000pt" height="49.000000pt" viewBox="0 0 1440.000000 49.000000"
 preserveAspectRatio="xMidYMid meet">

<g transform="translate(0.000000,49.000000) scale(0.100000,-0.100000)"
fill="#000000" stroke="none">
<path d="M11158 463 c199 -2 525 -2 725 0 199 1 36 2 -363 2 -399 0 -562 -1
-362 -2z"/>
<path d="M10318 443 c441 -2 1163 -2 1605 0 441 1 80 2 -803 2 -883 0 -1244
-1 -802 -2z"/>
<path d="M7100 350 c-8 -5 -12 -12 -9 -15 8 -8 39 5 39 16 0 11 -11 11 -30 -1z"/>
<path d="M4670 290 c-8 -16 -8 -20 4 -20 8 0 18 5 21 10 11 18 35 11 35 -10 0
-11 -7 -20 -15 -20 -8 0 -15 -7 -15 -15 0 -8 6 -15 14 -15 20 0 27 -13 16 -30
-7 -12 -13 -12 -34 0 -35 18 -47 3 -17 -21 29 -24 43 -24 72 0 22 18 22 19 6
44 -10 16 -13 28 -7 32 16 10 12 52 -6 59 -31 12 -63 6 -74 -14z"/>
<path d="M4890 290 c-13 -13 -20 -33 -20 -57 0 -44 6 -56 37 -72 32 -16 49
-14 79 12 22 20 24 25 11 30 -8 3 -21 -1 -27 -9 -29 -34 -70 -8 -70 43 0 27 5
34 26 39 14 4 30 2 37 -5 6 -6 20 -11 31 -11 18 0 18 1 -4 25 -29 31 -72 33
-100 5z"/>
<path d="M5050 250 c0 -65 21 -100 60 -100 39 0 60 35 60 101 0 44 -3 60 -12
57 -8 -3 -14 -24 -14 -51 -2 -64 -10 -79 -36 -75 -21 3 -23 9 -26 66 -2 46 -7
62 -17 62 -12 0 -15 -14 -15 -60z"/>
<path d="M5241 286 c-34 -36 -34 -74 -1 -108 16 -15 35 -28 44 -28 30 0 65 23
76 51 32 76 -63 144 -119 85z m86 -36 c26 -53 -40 -95 -73 -46 -15 24 -15 28
0 52 21 32 56 29 73 -6z"/>
<path d="M5390 300 c0 -5 9 -10 20 -10 17 0 19 -8 22 -67 2 -53 6 -68 18 -68
12 0 15 14 16 65 1 58 3 65 23 68 45 7 18 22 -39 22 -33 0 -60 -4 -60 -10z"/>
<path d="M5546 234 c-27 -74 -27 -107 -2 -71 8 10 26 17 46 17 20 0 38 -7 46
-17 26 -37 26 -1 -1 72 -36 101 -53 101 -89 -1z m58 10 c11 -29 6 -44 -14 -44
-11 0 -20 6 -20 14 0 21 11 46 20 46 4 0 11 -7 14 -16z"/>
<path d="M5705 290 c-23 -26 -13 -48 30 -66 19 -8 35 -21 35 -29 0 -17 -35
-21 -45 -5 -9 15 -25 12 -25 -5 0 -9 12 -20 27 -26 70 -26 103 50 36 80 -18 8
-33 20 -33 27 0 18 23 30 28 16 4 -14 42 -16 42 -2 0 12 -34 30 -58 30 -10 0
-27 -9 -37 -20z"/>
<path d="M5912 298 c-25 -25 -14 -58 23 -74 19 -8 35 -21 35 -30 0 -13 -7 -15
-37 -10 l-38 6 24 -20 c29 -25 43 -25 72 -1 29 24 19 48 -29 71 -31 15 -41 33
-22 45 5 3 18 0 29 -7 25 -15 39 -4 21 17 -15 18 -61 20 -78 3z"/>
<path d="M6052 233 c2 -50 7 -78 16 -81 9 -3 12 17 12 77 0 66 -3 81 -15 81
-13 0 -15 -13 -13 -77z"/>
<path d="M6130 230 c0 -63 3 -80 14 -80 11 0 16 15 18 53 l3 52 23 -38 c28
-43 49 -67 63 -67 5 0 9 36 9 81 0 60 -3 80 -12 77 -8 -3 -14 -25 -16 -52 l-3
-48 -36 51 c-52 73 -63 68 -63 -29z"/>
<path d="M6370 230 c0 -64 3 -80 15 -80 12 0 15 16 15 80 0 64 -3 80 -15 80
-12 0 -15 -16 -15 -80z"/>
<path d="M6444 296 c-3 -7 -4 -42 -2 -77 2 -51 6 -64 21 -67 14 -3 17 4 17 50
l0 53 36 -53 c19 -29 41 -51 47 -49 8 2 13 32 15 80 2 63 0 77 -12 77 -11 0
-16 -14 -18 -52 l-3 -53 -35 52 c-35 53 -56 65 -66 39z"/>
<path d="M6615 301 c-3 -5 5 -11 17 -13 21 -3 23 -9 26 -70 2 -52 6 -68 17
-68 12 0 15 15 15 70 0 63 2 70 20 70 11 0 20 5 20 10 0 13 -107 13 -115 1z"/>
<path d="M6763 233 l2 -78 43 -3 c32 -2 42 0 42 12 0 9 -11 16 -27 18 -17 2
-28 9 -28 18 0 9 11 16 28 18 35 4 35 20 0 24 -41 5 -43 36 -4 44 46 9 37 24
-13 24 l-45 0 2 -77z"/>
<path d="M6900 229 c0 -71 2 -80 18 -77 12 2 16 11 14 31 -4 36 12 34 35 -3 9
-16 23 -30 30 -30 16 0 16 5 -1 39 -13 25 -13 28 5 39 46 29 5 82 -63 82 l-38
0 0 -81z m86 40 c9 -16 -21 -43 -40 -36 -9 4 -16 16 -16 27 0 15 7 20 24 20
14 0 28 -5 32 -11z"/>
<path d="M7060 230 l0 -80 45 0 c33 0 45 4 45 15 0 10 -10 15 -30 15 -23 0
-30 4 -30 20 0 16 7 20 31 20 17 0 28 4 24 10 -3 6 -17 10 -31 10 -21 0 -25 4
-22 23 2 17 9 22 31 21 16 0 27 5 27 13 0 9 -15 13 -45 13 l-45 0 0 -80z"/>
<path d="M7202 298 c-25 -25 -14 -58 23 -74 32 -13 44 -32 29 -47 -4 -3 -19 0
-35 9 -16 8 -29 11 -29 7 1 -36 57 -52 90 -25 29 24 22 45 -25 73 -19 12 -35
25 -35 29 0 17 19 21 39 8 25 -15 39 -4 21 17 -15 18 -61 20 -78 3z"/>
<path d="M7423 295 c-59 -41 -25 -145 47 -145 20 0 83 49 64 50 -6 0 -17 -7
-24 -15 -31 -37 -100 -5 -100 48 0 51 62 76 102 40 26 -23 32 -11 8 15 -24 26
-66 29 -97 7z"/>
<path d="M7609 300 c-9 -5 -22 -23 -29 -40 -32 -77 62 -148 117 -87 64 69 -8
174 -88 127z m91 -42 c13 -25 13 -31 0 -55 -30 -54 -110 -34 -110 28 0 62 79
81 110 27z"/>
<path d="M7772 228 c2 -77 2 -78 5 -20 2 34 7 62 11 62 4 -1 24 -28 44 -60 21
-33 42 -60 48 -60 7 0 10 29 9 80 -2 95 -17 107 -21 18 l-3 -63 -40 62 c-22
35 -43 63 -47 63 -5 0 -7 -37 -6 -82z"/>
<path d="M7990 300 c0 -5 3 -9 8 -9 28 5 32 -4 32 -71 0 -92 18 -91 22 2 3 67
5 73 28 79 17 5 8 7 -32 8 -33 1 -58 -3 -58 -9z"/>
<path d="M8143 295 c-29 -21 -38 -66 -19 -103 44 -85 162 -31 135 62 -15 52
-71 72 -116 41z m97 -37 c13 -25 13 -31 0 -55 -30 -53 -110 -34 -110 25 0 63
79 84 110 30z"/>
<path d="M8310 229 l0 -82 47 6 c32 3 53 12 65 27 44 55 3 130 -72 130 l-40 0
0 -81z m100 42 c26 -50 1 -101 -51 -101 -29 0 -29 0 -29 60 l0 60 35 0 c24 0
37 -6 45 -19z"/>
<path d="M8630 291 c-16 -31 -12 -39 29 -61 50 -25 59 -39 36 -56 -16 -12 -22
-11 -43 2 -18 12 -23 13 -20 2 7 -21 54 -34 72 -18 29 23 20 59 -18 75 -42 18
-52 31 -36 50 16 19 25 19 45 -1 20 -20 33 -11 15 11 -18 22 -67 19 -80 -4z"/>
<path d="M8840 305 c-3 -5 -6 -41 -5 -80 l0 -70 38 -3 c21 -2 37 1 37 7 0 6
-13 11 -30 11 l-29 0 -3 73 c-2 39 -5 68 -8 62z"/>
<path d="M9110 295 c-19 -23 -7 -49 33 -68 23 -11 37 -24 37 -36 0 -26 -23
-33 -49 -14 -27 19 -38 11 -16 -11 33 -33 85 -14 85 31 0 18 -10 27 -40 39
-27 11 -40 22 -40 35 0 28 27 35 50 14 24 -22 37 -14 15 9 -20 20 -59 21 -75
1z"/>
<path d="M9300 300 c0 -5 9 -10 20 -10 18 0 20 -7 20 -70 0 -40 4 -70 10 -70
6 0 10 30 10 70 0 39 4 71 10 71 6 1 14 2 19 3 5 0 13 4 17 9 4 4 -18 7 -49 7
-31 0 -57 -4 -57 -10z"/>
<path d="M9587 303 c-7 -10 1 -144 8 -151 3 -3 5 11 5 31 0 47 18 48 48 1 13
-20 26 -33 29 -30 3 3 -2 17 -11 31 -15 23 -15 26 4 45 24 24 24 29 4 58 -10
15 -25 22 -49 22 -19 0 -36 -3 -38 -7z m78 -43 c0 -21 -5 -26 -32 -28 -31 -3
-33 -1 -33 28 0 29 2 31 33 28 27 -2 32 -7 32 -28z"/>
<path d="M9780 245 c-4 -57 -8 -70 -23 -73 -10 -2 -25 5 -32 15 -12 15 -14 15
-15 2 0 -20 20 -39 41 -39 30 0 40 25 37 97 l-4 68 -4 -70z"/>
<path d="M9840 230 l0 -80 40 0 c22 0 40 5 40 10 0 6 -13 10 -30 10 -25 0 -30
4 -30 25 0 23 17 32 53 26 4 0 7 3 7 9 0 5 -14 10 -31 10 -27 0 -30 3 -27 28
2 22 8 27 30 27 15 1 30 4 34 8 4 4 -14 7 -39 7 l-47 0 0 -80z"/>
<path d="M9960 300 c0 -5 9 -10 20 -10 18 0 20 -7 20 -70 0 -92 18 -90 22 3 3
61 6 72 21 71 9 -1 17 2 17 7 0 5 -22 9 -50 9 -27 0 -50 -4 -50 -10z"/>
<path d="M10253 303 c-7 -2 -13 -17 -13 -32 0 -23 7 -31 40 -44 43 -17 52 -40
21 -57 -15 -7 -24 -6 -36 6 -9 9 -19 13 -23 9 -9 -9 27 -35 49 -35 23 0 51 28
47 49 -2 9 -21 25 -43 37 -43 22 -50 40 -23 57 13 9 22 7 37 -7 22 -20 30 -9
9 12 -12 12 -43 15 -65 5z"/>
<path d="M8512 283 c-18 -36 -44 -124 -38 -131 4 -3 9 4 13 16 8 31 78 32 88
2 3 -11 10 -20 15 -20 4 0 -4 34 -18 75 -27 75 -43 91 -60 58z m32 -27 c3 -13
9 -31 12 -40 5 -13 -1 -16 -26 -16 -25 0 -31 3 -26 16 3 9 9 27 12 40 8 31 20
31 28 0z"/>
<path d="M8969 233 c-13 -37 -25 -71 -27 -75 -2 -4 1 -8 6 -8 6 0 14 9 17 20
9 29 70 28 85 -1 7 -11 14 -18 17 -15 9 9 -48 146 -61 146 -7 0 -23 -30 -37
-67z m57 -1 c6 -30 4 -32 -20 -32 -29 0 -31 4 -15 49 13 37 26 31 35 -17z"/>
<path d="M9466 292 c-15 -25 -54 -142 -46 -142 5 0 12 9 15 20 5 15 15 20 45
20 29 0 39 -4 43 -20 3 -11 10 -20 16 -20 8 0 -28 114 -45 142 -7 10 -21 10
-28 0z m28 -36 c3 -13 9 -31 12 -40 5 -13 -1 -16 -26 -16 -25 0 -31 3 -26 16
3 9 9 27 12 40 8 31 20 31 28 0z"/>
<path d="M10126 291 c-17 -27 -55 -141 -47 -141 5 0 13 9 16 20 5 15 15 20 45
20 29 0 39 -4 43 -20 3 -11 10 -20 15 -20 13 0 -40 142 -55 147 -6 2 -14 0
-17 -6z m28 -35 c3 -13 9 -31 12 -40 5 -13 -1 -16 -26 -16 -25 0 -31 3 -26 16
3 9 9 27 12 40 8 31 20 31 28 0z"/>
<path d="M9498 43 c386 -2 1018 -2 1405 0 386 1 70 2 -703 2 -773 0 -1089 -1
-702 -2z"/>
<path d="M10038 13 c23 -2 61 -2 85 0 23 2 4 4 -43 4 -47 0 -66 -2 -42 -4z"/>
<path d="M10398 13 c89 -2 235 -2 325 0 89 1 16 3 -163 3 -179 0 -252 -2 -162
-3z"/>
</g>
</svg>
